<?xml version="1.0" encoding="UTF-8" standalone="no"?>
<!-- Generator: Adobe Illustrator 21.0.2, SVG Export Plug-In . SVG Version: 6.00 Build 0)  -->

<svg
   version="1.1"
   id="Layer_1"
   x="0px"
   y="0px"
   viewBox="0 0 500 500"
   style="enable-background:new 0 0 500 500;"
   xml:space="preserve"
   sodipodi:docname="baby yoda cutting.svg"
   inkscape:version="1.2.2 (732a01da63, 2022-12-09)"
   xmlns:inkscape="http://www.inkscape.org/namespaces/inkscape"
   xmlns:sodipodi="http://sodipodi.sourceforge.net/DTD/sodipodi-0.dtd"
   xmlns="http://www.w3.org/2000/svg"
   xmlns:svg="http://www.w3.org/2000/svg"><defs
   id="defs11" /><sodipodi:namedview
   id="namedview9"
   pagecolor="#ffffff"
   bordercolor="#000000"
   borderopacity="0.25"
   inkscape:showpageshadow="2"
   inkscape:pageopacity="0.0"
   inkscape:pagecheckerboard="0"
   inkscape:deskcolor="#d1d1d1"
   showgrid="false"
   inkscape:zoom="2.054"
   inkscape:cx="250"
   inkscape:cy="249.75657"
   inkscape:window-width="3440"
   inkscape:window-height="1369"
   inkscape:window-x="-8"
   inkscape:window-y="-8"
   inkscape:window-maximized="1"
   inkscape:current-layer="Layer_1" />
<style
   type="text/css"
   id="style2">
	.st0{fill:#231F20;}
</style>
<path
   class="st0"
   d="M193.6,198.2c0.1,0.9-0.9,0.5-1.5,0.7c-4.9,1.5-9.1-0.5-13.2-2.8c-1.1-0.6-2-1.5-2.4-3.3  c2.4,1.2,4.3,2.1,6.3,3.1c2.9,1.4,5.8,2.4,9.1,1.7C192.6,197.3,193.5,197.4,193.6,198.2z M264.5,182.7c-0.3-1-0.2-1.9,0.2-2.8  c2.4-4.9,4.8-9.8,8.6-13.7c8.5-8.8,21.5-9,30.4-0.2c2.1,2,4,4.2,5.7,6.6c0.9,1.2,1.6,2.5,2.4,3.7c0.6,1.1,1.4,2.3,1.5,3.5  c0,0.8-0.2,1.6-0.4,2.3c-0.9,3.1-1.2,6.2-3.7,8.6c-4,4-9.9,6.4-15.5,7c-10.6,1-18.6-2.3-25.5-8.6  C266.3,187.5,265.3,185.2,264.5,182.7z M297.1,188.6c0,1.3,1.4,2.6,2.8,2.5c1.4-0.1,2.4-0.8,2.4-2.3c0-1.5-1.6-2.8-3-2.7  C297.7,186.2,297.2,187.3,297.1,188.6z M275.4,174.9c0.2,2,1.4,3.5,3.3,4.2c1.4,0.5,2.6,0.1,3.4-0.9c1.2-1.5,0.5-3.2-0.1-4.8  c0-0.1-0.1-0.2-0.2-0.3c-1-1.9-2.6-2.7-4.3-2.2C275.9,171.3,275.1,172.8,275.4,174.9z M160.2,257.3c-0.1,1.8-0.1,1.9,1,2.9  c6.9,6.4,13.3,13.4,21.2,18.9c8.4,5.9,17.4,10.7,27.3,13.6c1,0.3,2.1,0.7,3-0.5C191.8,285.7,175.3,272.8,160.2,257.3z M268.2,150.3  c1.9,0.6,7.5-0.9,8.3-1.1c6.6-1.6,13.7-2.4,20.4-0.9c3.6,0.8,7.3,1.5,10.9,2.7c2.3,0.8,4.1,2.7,6.5,3.2c3.5,0.8,1.7-3.7-0.4-4.2  c-1.5-0.4-3.1-0.7-4.5-1.4c-9.8-4.5-19.9-5.2-30.2-2.4c-3,0.8-5.8,2.2-9,1.3c-0.9-0.2-1.8,0.5-2.3,1.4  C267.4,149.7,267.7,150.1,268.2,150.3z M310.3,196.5c-3.7,2.1-7.1,4.4-10.7,6.1C303.8,203.1,309.4,199.9,310.3,196.5z M466,139.3  c-2.4,1-4.4,2.4-6.2,4.2c-4.8,4.7-8.9,10-13.1,15.2c-4.9,6.1-9.9,12.1-15,18c-5.7,6.6-12,12.7-18.5,18.6  c-9.6,8.8-20.6,14.9-33.2,18.1c-6.9,1.7-13.8,2.9-20.8,3.9c-1.7,0.2-3.2,0-4.9,0.1c-0.6,0-1.1,0.2-1.4,0.7c-0.6,0.9,0.9,3.9,1.2,5  c1.1,3.4,1.4,6.2,1.2,9.8c-0.2,4-0.2,8.2,0,12.2c0.2,3,1.4,5.3,3.6,7.3c1.1,1,2.2,1.9,3.4,2.8c2.7,2,4.4,5.7,3.6,9  c-0.9,1.7-1.5,3.1-3.1,4.4c-4.7,3.9-2.3,6.5-0.6,11.2c1.4,3.9,1.4,12.1-2,15.2c-2.5,2.3-2.1,5.3-2.4,8.2c-0.4,3.9-2.5,6.9-6.2,8.7  c-0.1-0.7-0.2-1.3-0.3-1.8c-0.7-2.9-1.2-6.3-3.8-8c-3.1-2.1-4.7-4.6-5.1-8.1c-0.1-1.2-0.8-2.2-2.2-1.9c-0.9,0.2-2.5-0.3-2.4,1.3  c0.3,3.7-0.2,7.9-3,10.8c-0.6,0.6-0.6,1.3-0.7,2.1c0,2.8-0.3,5.5-1.7,8.1c-1.3,2.5-2.1,2.7-4.2,0.7c-2.2-2.2-3.6-5-5.1-7.7  c-0.3-0.5-0.4-1.2-1-1.3c-4.3-1.5-4.1-5.2-5.8-8.5c-2.4-4.6-8.8-1.9-12.4-0.8c-7.2,2.1-15.3,2.5-22.7,3.7c-6.8,1.1-14,1.4-20.9,2.1  c-10.4,1-20.7,1.8-31.2,2.1c-10.1,0.3-20.3,0.3-30.4,0c-11.4-0.3-22.8-1.2-34.1-2.2c-12.1-1.1-24.2-2.5-36.3-4.1  c-3.7-0.5-7.3-1-11-1.6c-1.4-0.2-1.8,0.3-2.1,1.4c-0.5,2-0.7,4.1-0.7,6.2c0,0.8,0.4,1.9-0.4,2.2c-0.7,0.3-1.5-0.6-2.1-1.1  c-0.5-0.5-0.9-1-1.3-1.6c-1.4-2.1-1.9-4.5-2.2-7c-0.2-1.1-0.6-1.5-1.6-1.7c-3.3-0.5-6.6-1.1-9.9-1.7c-0.9-0.2-1.3,0-1.5,1.1  c-0.4,2.4-0.7,4.9-0.9,7.4c0-1.7-2.5-4.8-3-6.7c-0.5-2.4-0.7-4.9-1-7.3c-0.7-6.8,3.3-14.5,7.7-19.4c4.8-5.3,10.5-6.6,17.2-3.9  c2,0.8,3.9,1.8,5.6,3.2c0.8,0.7,1.4,0.9,2.5,0.5c1.2-0.5,6.6-0.4,6.9-1.4c0.5-1.6-1.9-5.1-2.2-6.9c-0.4-2.2,0.8-3.2,1.4-5.2  c0.9-3.1,2.9-5.6,4.5-8.3c3.3-5.5,4.9-11.4,4-17.9c-0.3-2.3-0.8-4.6-1.5-6.8c-1.2-4.4-1.1-8.7,0.5-13c0.6-1.6,0-2.1-1.5-2.3  c-3.6-0.4-7.2-1-10.9-0.8c-1.8,0.1-3.1-1.3-4.8-1.6c-6.8-1.3-13-4.3-19.3-7.1c-2.2-1-4.5-2.1-6.3-3.4c-4-2.9-8.3-5.5-12-8.8  c-6-5.3-11.1-11.3-14.8-18.4c-3-5.7-5.9-11.4-8.8-17.1c-4.2-8.2-8.3-16.4-12.6-24.5c-3-5.7-7.2-10.5-12.6-14.2  c-2.3-1.6-2.5-3.9-2.1-6c0.4-2.2,2.7-2.8,4.8-3.1c6-0.9,12-0.7,18.1,0.3c26.8,4.4,53,11.3,79.4,17.8c7,1.7,14.2,2.5,21.4,3.4  c1.5,0.2,2.9-0.3,4.2-1.3c8.3-6.5,17.1-12.1,26.4-17c12.5-6.6,25.8-11.2,39.7-13.4c20.3-3.1,40.1-0.7,59.2,6.7  c5.3,2,10.6,4.3,15.4,7.1c6.1,3.5,12.1,7.2,17.6,11.5c5.1,3.9,8.6,7.9,12.3,13c1.1,1.5,2.6,2.3,4.3,2.7c7.2,4.2,17.9,2.8,25.9,3  c8.1,0.2,16.1,0.3,24.2-0.2c9.9-0.6,19.8-1.4,29.6-2.5c10.8-1.3,21.7-2.6,32.6-3.2c6.4-0.3,12.7,0.4,18.8,2.6  c1.8,0.6,2.8,1.8,3.1,3.7C468.8,137.9,468.5,138.3,466,139.3z M47,105.4c3,0.8,6.1,1.4,9.1,2.3c13.5,4.3,26.6,9.8,39.3,16.2  c6.1,3.1,12.1,6.3,18,9.7c6,3.4,11,8.1,16.8,11.7c8.7,5.5,16.9,15.8,21.5,25c0.3,0.6,1,1.5-0.1,1.9c-0.9,0.4-1.3-0.5-1.7-1.1  c-0.2-0.4-0.4-0.8-0.6-1.2c-0.9-1.9-2.3-3.5-3.7-5.5c-0.6,2.5-0.8,4.6-0.6,6.7c0.5,5.3,0.8,10.7,2,16c1.2,5.4,2.7,10.8,6.1,15.3  c1.4,1.8,2.4,3.8,3.2,6c1.1,2.7,2.9,4.9,5.4,6.4c14,8.3,28.9,14.5,44.6,18.9c2.7,0.7,5.4,1.9,8-0.3c0.1-0.1,0.2-0.1,0.4-0.1  c3.6-1.1,7.3-0.8,10.9-0.5c10.4,0.7,20.8,0.7,31.2-0.3c8.1-0.7,16.2-1.4,24.2-3.2c3.2-0.7,6.4-1.2,9.6-1.9c4.3-0.9,8.2-3,12.5-4.2  c7-1.8,13.6-5,20.1-8.2c9.6-4.7,8.3-2.5,12.9-13.6c3.9-9.5,6-19.5,5.4-29.9c-0.1-1.4-0.1-2.8-2-3.3c2.9-1.2,5.6-2.9,8.5-4.2  c3.6-1.6,7.6-2.7,11.4-3.9c1.8-0.6,3.8-0.9,5.6-1.5c2-0.7,4-1.5,5.9-2.3c9.9-4,20.2-7.1,30.2-11c8.2-3.2,16.6-5.9,25-8.2  c3-0.8,5.9-1.9,8.8-2.8c0-0.2-0.1-0.3-0.1-0.5c0-0.2-19.7,2.5-21.5,2.7c-7.7,0.8-15.5,1.5-23.3,2c-3.7,0.2-7.4,0.3-11.1,0.9  c-3.8,0.6-7.6,1.4-11.4,1.8c-5.4,0.6-11,1.1-16.4,0.4c-4.4-0.5-8.7-1.4-13.1-2.1c-1.9-0.8-3.7-1.5-5.6-2.3c-1.1-1.2-2.2-2.4-3.3-3.6  c-4.2-4.5-8.1-8.6-13.6-11.4c-10.5-5.5-20.6-10.7-30.1-18c-20.6-7.7-42.2-11.3-64-7.4c-9.1,1.6-18.3,4.2-26.6,8.4  c-8,4.1-15.3,9.4-23.2,13.7c-3.7,2-7.5,3.7-11.1,5.7c-1.7,1-3.4,2-5,3.2c-1.8-0.4-3.4-0.5-4.4-0.1c-2.1,0.7-8.5-2.2-10.9-2.7  c-4.3-0.9-8.6-1.7-12.9-2.8c-22.4-5.8-44.9-11.3-67.6-15.6C55.6,106,51.3,105.3,47,105.4z M140.2,200.4c3.1,0.1,6.2,0.5,9.3-0.1  c0-0.3,0-0.5-0.1-0.6c-4.4-11.7-6.9-23.7-5.1-36.3c0.1-0.8-0.2-1.3-0.7-1.9c-2.4-3.2-5.1-6.1-8-8.8c-6.7-6.4-14.1-11.9-22-16.7  c-13.6-8.2-28.1-14.9-42.7-21.1c-9.9-4.2-20.3-6.6-31.4-8.9c0.7,0.8,1.1,1.2,1.5,1.6c5,4.8,9.1,10.2,12.4,16.4  c6,11.3,11.5,22.8,17.3,34.2c6.9,13.6,17.6,23.4,30.3,31C112.9,196.3,126.1,200.1,140.2,200.4z M96.5,282.4c-0.5-0.7-1.1-1.1-2.1-1  c-1,0.1-1.7,0.7-1.8,1.7c-0.7,4.6-0.7,9.1,1.1,13.6c0.1-0.5,0.1-1,0.3-1.5c0.6-2.6,0.9-5.4,2.5-7.7C97.5,285.9,97.5,284,96.5,282.4z   M112.8,285.9c-2-0.6-3,0-3.1,2.1c-0.2,2.4-0.2,4.8,0.1,7.2c0.4,3.1,0.9,6.2,3.5,8.9c0.1-5.8,0.1-5.8,2.6-10.2  C117.3,291.4,115.5,286.8,112.8,285.9z M147.7,284.8c0.1-0.6-0.2-1.3-0.6-1.9c-2.8-3.7-5.6-7.3-9.1-10.4c-3.3-3-7.3-4.7-11.5-3.6  c-3.7,1.1-6.3,0.4-9.4-1.5c-4-2.4-8.6-3.1-13-1c-5.8,2.7-8.6,7.8-10.8,13.8c3.3-0.2,4.5,0.9,5.4,4.2c0.7,2.7,2.1,3.4,4.7,2.6  c2.3-0.7,4-2.3,5.5-4.1c2.3-2.8,4.2-5.8,5.8-9.1c0.5-1.1,1.1-2.1,2.3-2.6c0.6-0.3,1.5-0.7,1.9-0.1c0.5,0.6-0.4,1.1-0.8,1.5  c-2.7,3.1-5.4,6.2-7.3,9.9c-0.5,1.1-0.7,1.6,0.9,1.6c2.6,0,4.7,1,5.9,3.4c0.5,0.9,1.1,1.1,2,0.9c2.6-0.5,5.3-0.5,7.9,0  c1.3,0.2,1.9-0.2,2.4-1.1c1.2-2,2.5-4,4-6.4c1.4,3.7,3.2,6.6,7,8.1c-2.9,0.4-5.5-0.1-8,1.3c0.7,0.9,1.5,1,2.2,1.1  c3.6,0.5,7.2,0.9,10.9,1.3c1,0.1,1.3-0.4,1.4-1.3C147.6,289.2,147.5,287,147.7,284.8z M171.2,295.3c-8.2-3.3-15.2-8.6-22.6-13.2  c1.8,3,3.5,5.9,4.7,9.1c0.9,2.3,2.1,3.2,4.6,3.4c4.4,0.2,8.7,0.9,13.1,1.3C171.1,295.7,171.1,295.5,171.2,295.3z M218.9,295.9  c1.2-8.5,2.6-17,1-25.6c-0.1-1.3-0.2-2.5-0.4-3.8c-1.3-9.2-3.3-18.2-6.3-27c-0.7-2.1-1.6-3.2-3.8-3.7c-15-3.8-29.2-9.6-42.9-16.7  c-6.1-3.2-11-7.3-14.1-13.4c-1.2-2.3-1.9-2.4-4.1-1.1c-5.7,3.4-7.6,9-5.6,15.9c1.8,6.2,2.2,12.5,0.9,18.9c-1.1,5.4-4.1,9.7-7.1,14.1  c-1.5,2.1-1.9,4.4-1.3,6.8c1.6,7.4,5.6,13.4,11.3,18.1c7,5.8,14.8,10.3,22.8,14.5c2.9,1.5,5.8,3.2,9.1,3.4c2.7,0.2,5.4,0.4,8.1,0.6  c10.1,0.5,20.1,1,30.2,0.9C218.3,297.8,218.7,297.3,218.9,295.9z M330.6,300.5c-0.9-1.3-2.1-2.3-3.8-1.9c-1.8,0.4-2.9,1.6-3.5,3.4  c-0.3,1.1-0.4,2.2,0,3.2c1.5,4,3.8,7.4,7.3,10c0.4-1,0.8-1.8,1.1-2.7C332.9,308.4,333.1,304.3,330.6,300.5z M356.1,296.8  c-0.6-1.7-2.3-2.8-3.9-2.7c-3.5,0.2-5.3,3.8-3.2,7c1.8,2.7,2.8,5.6,3.3,8.9C355.8,307.3,357.6,300.7,356.1,296.8z M358.8,276.4  c-1.8-2.1-4-2-6.5-1.8c-1.9,0.1-3.8,0.2-5.6,0.7c-1.7,0.4-3.1,1.5-4.6,2.1c-1.5,0.6-3.4,0.6-5,0.4c-0.8-0.1-1.7-0.5-2.5-0.6  c-0.5,0-0.9,0.2-1.4,0.1c-0.7-0.2-1.4-0.9-2.1-1.3c-1.7-0.9-3.6-1.6-5.5-1.7c-2.6-0.1-5.1,0.3-7.2,2.1c-2,1.7-3.8,3.7-5.4,5.8  c-1.8,2.4-3.6,4.8-5.1,7.7c1.4-0.1,2.5-0.4,3.6-0.3c1.5,0,2.1-0.6,2.4-2c0.1-0.8,0.3-2,1.3-2.1c1.5-0.1,1.7,3.1,1.8,4.1  c0.4,2.7,0.9,5.4,1.5,8.1c0.3,1.2,0.6,1.5,1.7,2.2c0.8,0.5,1.4,0.9,2,1.6c-0.3-0.3,3-3,3.4-3.2c1.3-0.7,2.7-0.8,4.1-0.1  c1.3,0.7,2.3,2.9,3.9,3c2.3,0.2,2.3-4.4,2.3-5.9c0-1.1-0.6-2.8-0.2-3.8c0.7-1.7,2.5-3,4.3-3.1c6.1-0.2,1.9,9.6,6.4,9.4  c1.1-0.1,1.3-2.2,1.8-3c0.6-0.9,1.4-1.6,2.4-2c2-0.8,4.3-0.2,6,1c1.4,1,2.1,0.6,2.9-0.6c2-3.2,2.3-6.7,2.2-9.4  C361.2,281.2,360.5,278.5,358.8,276.4z M350.9,248.3c-1.5-4.8-1.1-9.8-0.8-14.7c0.5-7.7-0.7-14.4-7.7-19.1c-4-2.6-6.4-4.9-13-1.2  c-7.5,4.3-15.6,7.6-23.6,10.9c-9.6,4-19.8,5.9-30,7.5c-7.5,1.2-15.1,2.5-22.7,2.8c-6.6,0.3-13.2,0.6-19.9,0.2  c-4.8-0.3-9.7-0.7-14.5-0.2c-5.2,0.5-5.5,0.9-4.1,5.2c2.1,6.4,4.4,12.7,5.5,19.4c0.9,5.7,2,11.3,2.2,17.1c0.2,6.6-0.6,13.1-1.7,19.5  c-0.3,1.6,0.4,1.8,1.6,1.8c4.5-0.2,9-0.3,13.4-0.6c14-0.9,28-2.2,41.9-4.1c8.6-1.2,17.4-1.6,26-3c1.2-0.2,2-0.6,2.7-1.6  c3.3-4.6,6.7-9,10.8-12.9c3.8-3.6,10.2-3.9,14.5-0.9c1,0.7,2.1,1.2,3.3,1.3c3.5,0.4,6.6-0.4,9.5-2.4c3.5-2.3,7.3-3.4,11.4-1.3  c0.7,0.4,1,0,1.4-0.4c1.4-1.8,2.8-3.7,3-6c0.3-2.8,1.6-5.8-2-7.8C354.4,255.8,352.2,252.4,350.9,248.3z M462,135  c-5.8-1.5-11.4-2.4-17-1.1c-9.3,2.3-18.5,4.8-27.6,7.8c-13.3,4.4-26.3,9.8-39.3,14.9c-10.9,4.3-22.1,8.1-33.3,11.5  c-1.2,0.4-1.5,0.9-1.4,2c0.2,2.6,0.2,5.2,0.1,7.8c-0.5,10.5-3.6,20.3-8,29.7c-0.6,1.4-0.3,1.8,1,2c2.5,0.4,5,0.8,7.5,1.1  c6.3,0.9,12.7,1.2,19,0c3.8-0.7,7.5-1.5,11.3-2.2c5.3-1,10.4-2.3,15.4-4.3c7.5-3,13.7-8,19.6-13.3c9.4-8.3,18.2-17.3,26.2-27  C443.8,154,451,143,462,135z M341.4,247c-0.8-0.5-1.1,0.4-1.4,0.8c-7.1,9.5-16.6,16.3-26.5,22.5c-7.6,4.8-15.8,8.4-24.3,11.3  c-6.2,2.1-12.3,4.5-18.5,6.5c-5,1.6-10.2,2-15.3,3.3c-3.1,0.8-6.3,1.2-9.5,1.1c-1.1-0.1-2.1,0.2-3.2,0.9c2.9,1,11.7,0.8,15.6-0.3  c4-1,7.9-2,11.9-3c12.6-3.2,24.5-8,36.2-13.4c6.9-3.1,12.9-7.8,19.1-12.2c6.1-4.4,11.4-9.5,15.7-15.7  C341.4,248.3,342.4,247.7,341.4,247z M167.9,169.7c2.5-6.5,6.8-12.7,13.8-14.7c6.3-1.8,13.2,0,18.5,3.6c5.2,3.6,9.1,9,11.3,14.9  c0.9,2.3,2.5,6.3,1.6,8.7c-0.8,2.3-3.6,3.6-5.6,4.7c-2.6,1.5-5.4,2.6-8.4,3.4c-5.8,1.4-12.1,1.5-17.7-0.6  C174.4,187,164.6,178.4,167.9,169.7z M194.4,183.8c0.2,1.5,1.4,2.1,2.7,2.1c1.2,0,1.6-1,1.6-2.2c-0.3-1.2-1.1-2.1-2.5-2  C195.1,181.9,194.3,182.6,194.4,183.8z M175.6,167.7c0.2,2.1,2.1,3.6,4.2,3.4c2.1-0.2,3.7-2.2,3.5-4.2c-0.2-2.1-2.2-3.6-4.5-3.4  C176.7,163.7,175.4,165.4,175.6,167.7z M252.3,267.9c5.5,1.2,11,0.9,17.6,0.2c6.6-0.2,13.8-2.5,20.7-5.6c4.8-2.1,9.6-4.2,13.4-7.9  c0.4-0.4,1.4-0.6,0.8-1.3c-0.5-0.6-1.3-0.3-1.9,0.2c-1.2,1-2.6,1.8-3.9,2.6c-9.6,6.2-20.2,9.2-31.4,10.8c-5.1,0.7-10.2,0-15.3-0.6  c-1-0.1-2.7-1-3,0.3C249.3,267.5,251.2,267.6,252.3,267.9z M168.4,146c0.3,0.1,0.7,0,1.1-0.1c6.2-2.3,12-2.9,18.5-3.6  c5-0.5,10.2,0.4,14.9,1.9c2.5,0.8,4.9,1.7,7.2,2.6c0.7,0.3,8,3.8,6.5,0.2c-0.4-0.9-1.2-1.8-2.1-1.7c-3.3,0.4-5.9-1.3-8.8-2.5  c-9.6-4.2-20.2-4.9-30.3-1.9c-1.5,0.5-3.1,0.5-4.7,0.7c-0.9,0.1-3.3,2.7-3,3.8C168.1,145.7,168.2,145.9,168.4,146z M214.8,206.9  c-0.2,0.3-0.4,0.6,0,1c2,2.2,4,4.4,7.4,4.3c1.8,0,3.7,0,5.5-0.2c3.9-1,7.4,0.4,10.8,1.7c3.7,1.4,6.9,0.4,9.9-1.8  c0.6-0.4,0.7-0.9,0.5-1.5c-0.2-0.5-0.4-1.1-1.1-1.2c-0.7-0.2-0.7,0.6-1,0.9c-1.1,1.5-2.5,2.3-4.3,2.3c-1.9,0-3.6-0.6-5.3-1.2  c-2.2-0.7-4.3-1.3-6.6-1.2c-3.3,0-6.7,0.6-10-0.1c-1.6-0.3-3.3-0.7-2.7-3.1c0.1-0.4-0.1-0.7-0.6-0.7  C216.3,206.1,215.4,206.1,214.8,206.9z M227.7,218.2c-0.1,0.6,0.5,0.8,1,1c2.2,0.8,4.5,1,6.8,0.4c0.7-0.2,1.6-0.4,2-1.6  c-2.9-0.1-5.7-0.3-8.5-0.4C228.4,217.5,227.8,217.6,227.7,218.2z"
   id="path4" />

</svg>
