  0
SECTION
  2
HEADER
  9
$ACADVER
  1
AC1014
  9
$HANDSEED
  5
FFFF
  9
$MEASUREMENT
 70
     1
  0
ENDSEC
  0
SECTION
  2
TABLES
  0
TABLE
  2
VPORT
  5
8
330
0
100
AcDbSymbolTable
 70
     4
  0
VPORT
  5
2E
330
8
100
AcDbSymbolTableRecord
100
AcDbViewportTableRecord
  2
*ACTIVE
 70
     0
 10
0.0
 20
0.0
 11
1.0
 21
1.0
 12
210.0
 22
148.5
 13
0.0
 23
0.0
 14
10.0
 24
10.0
 15
10.0
 25
10.0
 16
0.0
 26
0.0
 36
1.0
 17
0.0
 27
0.0
 37
0.0
 40
341.0
 41
1.24
 42
50.0
 43
0.0
 44
0.0
 50
0.0
 51
0.0
 71
     0
 72
   100
 73
     1
 74
     3
 75
     0
 76
     0
 77
     0
 78
     0
  0
ENDTAB
  0
TABLE
  2
LTYPE
  5
5
330
0
100
AcDbSymbolTable
 70
     1
  0
LTYPE
  5
14
330
5
100
AcDbSymbolTableRecord
100
AcDbLinetypeTableRecord
  2
BYBLOCK
 70
     0
  3

 72
    65
 73
     0
 40
0.0
  0
LTYPE
  5
15
330
5
100
AcDbSymbolTableRecord
100
AcDbLinetypeTableRecord
  2
BYLAYER
 70
     0
  3

 72
    65
 73
     0
 40
0.0
  0
LTYPE
  5
16
330
5
100
AcDbSymbolTableRecord
100
AcDbLinetypeTableRecord
  2
CONTINUOUS
 70
     0
  3
Solid line
 72
    65
 73
     0
 40
0.0
  0
ENDTAB
  0
TABLE
  2
LAYER
  5
2
100
AcDbSymbolTable
 70
1
  0
LAYER
  5
50
100
AcDbSymbolTableRecord
100
AcDbLayerTableRecord
  2
0
 70
0
  6
CONTINUOUS
  0
ENDTAB
  0
TABLE
  2
STYLE
  5
3
330
0
100
AcDbSymbolTable
 70
     1
  0
STYLE
  5
11
330
3
100
AcDbSymbolTableRecord
100
AcDbTextStyleTableRecord
  2
STANDARD
 70
     0
 40
0.0
 41
1.0
 50
0.0
 71
     0
 42
2.5
  3
txt
  4

  0
ENDTAB
  0
TABLE
  2
VIEW
  5
6
330
0
100
AcDbSymbolTable
 70
     0
  0
ENDTAB
  0
TABLE
  2
UCS
  5
7
330
0
100
AcDbSymbolTable
 70
     0
  0
ENDTAB
  0
TABLE
  2
APPID
  5
9
330
0
100
AcDbSymbolTable
 70
     2
  0
APPID
  5
12
330
9
100
AcDbSymbolTableRecord
100
AcDbRegAppTableRecord
  2
ACAD
 70
     0
  0
ENDTAB
  0
TABLE
  2
DIMSTYLE
  5
A
330
0
100
AcDbSymbolTable
 70
     1
  0
DIMSTYLE
105
27
330
A
100
AcDbSymbolTableRecord
100
AcDbDimStyleTableRecord
  2
ISO-25
 70
     0
  3

  4

  5

  6

  7

 40
1.0
 41
2.5
 42
0.625
 43
3.75
 44
1.25
 45
0.0
 46
0.0
 47
0.0
 48
0.0
140
2.5
141
2.5
142
0.0
143
0.03937007874016
144
1.0
145
0.0
146
1.0
147
0.625
 71
     0
 72
     0
 73
     0
 74
     0
 75
     0
 76
     0
 77
     1
 78
     8
170
     0
171
     3
172
     1
173
     0
174
     0
175
     0
176
     0
177
     0
178
     0
270
     2
271
     2
272
     2
273
     2
274
     3
340
11
275
     0
280
     0
281
     0
282
     0
283
     0
284
     8
285
     0
286
     0
287
     3
288
     0
  0
ENDTAB
  0
TABLE
  2
BLOCK_RECORD
  5
1
330
0
100
AcDbSymbolTable
 70
     1
  0
BLOCK_RECORD
  5
1F
330
1
100
AcDbSymbolTableRecord
100
AcDbBlockTableRecord
  2
*MODEL_SPACE
  0
BLOCK_RECORD
  5
1B
330
1
100
AcDbSymbolTableRecord
100
AcDbBlockTableRecord
  2
*PAPER_SPACE
  0
ENDTAB
  0
ENDSEC
  0
SECTION
  2
BLOCKS
  0
BLOCK
  5
20
330
1F
100
AcDbEntity
  8
0
100
AcDbBlockBegin
  2
*MODEL_SPACE
 70
     0
 10
0.0
 20
0.0
 30
0.0
  3
*MODEL_SPACE
  1

  0
ENDBLK
  5
21
330
1F
100
AcDbEntity
  8
0
100
AcDbBlockEnd
  0
BLOCK
  5
1C
330
1B
100
AcDbEntity
 67
     1
  8
0
100
AcDbBlockBegin
  2
*PAPER_SPACE
  1

  0
ENDBLK
  5
1D
330
1B
100
AcDbEntity
 67
     1
  8
0
100
AcDbBlockEnd
  0
ENDSEC
  0
SECTION
  2
ENTITIES
  0
LWPOLYLINE
  5
100
100
AcDbEntity
  8
0
 62
7
100
AcDbPolyline
 90
4
 70
1
 10
128.737900
 20
64.459200
 30
0.0
 10
146.517900
 20
64.459200
 30
0.0
 10
146.517900
 20
85.459200
 30
0.0
 10
128.737900
 20
85.459200
 30
0.0
  0
LWPOLYLINE
  5
101
100
AcDbEntity
  8
0
 62
7
100
AcDbPolyline
 90
4
 70
1
 10
134.120100
 20
83.142000
 30
0.0
 10
132.342100
 20
83.142000
 30
0.0
 10
132.342100
 20
85.809000
 30
0.0
 10
134.120100
 20
85.809000
 30
0.0
  0
LWPOLYLINE
  5
102
100
AcDbEntity
  8
0
 62
7
100
AcDbPolyline
 90
4
 70
1
 10
140.978100
 20
85.809000
 30
0.0
 10
142.756100
 20
85.809000
 30
0.0
 10
142.756100
 20
83.142000
 30
0.0
 10
140.978100
 20
83.142000
 30
0.0
  0
LWPOLYLINE
  5
103
100
AcDbEntity
  8
0
 62
7
100
AcDbPolyline
 90
4
 70
1
 10
100.251300
 20
64.459200
 30
0.0
 10
118.031300
 20
64.459200
 30
0.0
 10
118.031300
 20
85.459200
 30
0.0
 10
100.251300
 20
85.459200
 30
0.0
  0
LWPOLYLINE
  5
104
100
AcDbEntity
  8
0
 62
7
100
AcDbPolyline
 90
4
 70
1
 10
105.633500
 20
83.142000
 30
0.0
 10
103.855500
 20
83.142000
 30
0.0
 10
103.855500
 20
85.809000
 30
0.0
 10
105.633500
 20
85.809000
 30
0.0
  0
LWPOLYLINE
  5
105
100
AcDbEntity
  8
0
 62
7
100
AcDbPolyline
 90
4
 70
1
 10
112.491500
 20
85.809000
 30
0.0
 10
114.269500
 20
85.809000
 30
0.0
 10
114.269500
 20
83.142000
 30
0.0
 10
112.491500
 20
83.142000
 30
0.0
  0
LWPOLYLINE
  5
106
100
AcDbEntity
  8
0
 62
7
100
AcDbPolyline
 90
2
 70
0
 10
194.347800
 20
37.908900
 30
0.0
 10
194.347800
 20
37.608900
 30
0.0
  0
LWPOLYLINE
  5
107
100
AcDbEntity
  8
0
 62
7
100
AcDbPolyline
 90
2
 70
0
 10
194.347800
 20
37.908900
 30
0.0
 10
197.347800
 20
37.908900
 30
0.0
  0
LWPOLYLINE
  5
108
100
AcDbEntity
  8
0
 62
7
100
AcDbPolyline
 90
3
 70
0
 10
196.047800
 20
37.608900
 30
0.0
 10
196.047800
 20
36.108900
 30
0.0
 10
197.347800
 20
36.108900
 30
0.0
  0
LWPOLYLINE
  5
109
100
AcDbEntity
  8
0
 62
7
100
AcDbPolyline
 90
2
 70
0
 10
197.347800
 20
37.908900
 30
0.0
 10
197.347800
 20
37.608900
 30
0.0
  0
LWPOLYLINE
  5
10a
100
AcDbEntity
  8
0
 62
7
100
AcDbPolyline
 90
2
 70
0
 10
197.347800
 20
36.108900
 30
0.0
 10
197.347800
 20
37.608900
 30
0.0
  0
LWPOLYLINE
  5
10b
100
AcDbEntity
  8
0
 62
7
100
AcDbPolyline
 90
2
 70
0
 10
49.421300
 20
37.909200
 30
0.0
 10
49.421300
 20
37.609200
 30
0.0
  0
LWPOLYLINE
  5
10c
100
AcDbEntity
  8
0
 62
7
100
AcDbPolyline
 90
2
 70
0
 10
49.421300
 20
37.909200
 30
0.0
 10
52.421300
 20
37.909200
 30
0.0
  0
LWPOLYLINE
  5
10d
100
AcDbEntity
  8
0
 62
7
100
AcDbPolyline
 90
3
 70
0
 10
51.121300
 20
37.609200
 30
0.0
 10
51.121300
 20
36.109200
 30
0.0
 10
52.421300
 20
36.109200
 30
0.0
  0
LWPOLYLINE
  5
10e
100
AcDbEntity
  8
0
 62
7
100
AcDbPolyline
 90
2
 70
0
 10
52.421300
 20
37.909200
 30
0.0
 10
52.421300
 20
37.609200
 30
0.0
  0
SPLINE
  5
10f
100
AcDbEntity
  8
0
 62
7
100
AcDbSpline
 70
8
 71
3
 72
8
 73
4
 74
0
 40
0
 40
0
 40
0
 40
0
 40
1
 40
1
 40
1
 40
1
 10
421.082079
 20
31.437680
 30
0.0
 10
418.406895
 20
31.437680
 30
0.0
 10
415.995128
 20
29.826189
 30
0.0
 10
414.971379
 20
27.354642
 30
0.0
  0
SPLINE
  5
110
100
AcDbEntity
  8
0
 62
7
100
AcDbSpline
 70
8
 71
3
 72
8
 73
4
 74
0
 40
0
 40
0
 40
0
 40
0
 40
1
 40
1
 40
1
 40
1
 10
414.971379
 20
27.354642
 30
0.0
 10
413.947631
 20
24.883094
 30
0.0
 10
414.513512
 20
22.038221
 30
0.0
 10
416.405152
 20
20.146580
 30
0.0
  0
SPLINE
  5
111
100
AcDbEntity
  8
0
 62
7
100
AcDbSpline
 70
8
 71
3
 72
8
 73
4
 74
0
 40
0
 40
0
 40
0
 40
0
 40
1
 40
1
 40
1
 40
1
 10
416.405152
 20
20.146580
 30
0.0
 10
418.296792
 20
18.254940
 30
0.0
 10
421.141666
 20
17.689059
 30
0.0
 10
423.613213
 20
18.712808
 30
0.0
  0
SPLINE
  5
112
100
AcDbEntity
  8
0
 62
7
100
AcDbSpline
 70
8
 71
3
 72
8
 73
4
 74
0
 40
0
 40
0
 40
0
 40
0
 40
1
 40
1
 40
1
 40
1
 10
423.613213
 20
18.712808
 30
0.0
 10
426.084760
 20
19.736556
 30
0.0
 10
427.696252
 20
22.148324
 30
0.0
 10
427.696252
 20
24.823507
 30
0.0
  0
SPLINE
  5
113
100
AcDbEntity
  8
0
 62
7
100
AcDbSpline
 70
8
 71
3
 72
8
 73
4
 74
0
 40
0
 40
0
 40
0
 40
0
 40
1
 40
1
 40
1
 40
1
 10
427.696252
 20
24.823507
 30
0.0
 10
427.696252
 20
26.577695
 30
0.0
 10
426.999404
 20
28.260036
 30
0.0
 10
425.759005
 20
29.500434
 30
0.0
  0
SPLINE
  5
114
100
AcDbEntity
  8
0
 62
7
100
AcDbSpline
 70
8
 71
3
 72
8
 73
4
 74
0
 40
0
 40
0
 40
0
 40
0
 40
1
 40
1
 40
1
 40
1
 10
425.759005
 20
29.500434
 30
0.0
 10
424.518607
 20
30.740832
 30
0.0
 10
422.836267
 20
31.437680
 30
0.0
 10
421.082079
 20
31.437680
 30
0.0
  0
LWPOLYLINE
  5
115
100
AcDbEntity
  8
0
 62
7
100
AcDbPolyline
 90
2
 70
0
 10
52.421300
 20
36.109200
 30
0.0
 10
52.421300
 20
37.609200
 30
0.0
  0
SPLINE
  5
116
100
AcDbEntity
  8
0
 62
7
100
AcDbSpline
 70
8
 71
3
 72
8
 73
4
 74
0
 40
0
 40
0
 40
0
 40
0
 40
1
 40
1
 40
1
 40
1
 10
528.747969
 20
31.437680
 30
0.0
 10
526.072785
 20
31.437680
 30
0.0
 10
523.661018
 20
29.826189
 30
0.0
 10
522.637269
 20
27.354642
 30
0.0
  0
SPLINE
  5
117
100
AcDbEntity
  8
0
 62
7
100
AcDbSpline
 70
8
 71
3
 72
8
 73
4
 74
0
 40
0
 40
0
 40
0
 40
0
 40
1
 40
1
 40
1
 40
1
 10
522.637269
 20
27.354642
 30
0.0
 10
521.613521
 20
24.883094
 30
0.0
 10
522.179401
 20
22.038221
 30
0.0
 10
524.071042
 20
20.146580
 30
0.0
  0
SPLINE
  5
118
100
AcDbEntity
  8
0
 62
7
100
AcDbSpline
 70
8
 71
3
 72
8
 73
4
 74
0
 40
0
 40
0
 40
0
 40
0
 40
1
 40
1
 40
1
 40
1
 10
524.071042
 20
20.146580
 30
0.0
 10
525.962682
 20
18.254940
 30
0.0
 10
528.807556
 20
17.689059
 30
0.0
 10
531.279103
 20
18.712808
 30
0.0
  0
SPLINE
  5
119
100
AcDbEntity
  8
0
 62
7
100
AcDbSpline
 70
8
 71
3
 72
8
 73
4
 74
0
 40
0
 40
0
 40
0
 40
0
 40
1
 40
1
 40
1
 40
1
 10
531.279103
 20
18.712808
 30
0.0
 10
533.750650
 20
19.736556
 30
0.0
 10
535.362142
 20
22.148324
 30
0.0
 10
535.362142
 20
24.823507
 30
0.0
  0
SPLINE
  5
11a
100
AcDbEntity
  8
0
 62
7
100
AcDbSpline
 70
8
 71
3
 72
8
 73
4
 74
0
 40
0
 40
0
 40
0
 40
0
 40
1
 40
1
 40
1
 40
1
 10
535.362142
 20
24.823507
 30
0.0
 10
535.362142
 20
26.577695
 30
0.0
 10
534.665293
 20
28.260036
 30
0.0
 10
533.424895
 20
29.500434
 30
0.0
  0
SPLINE
  5
11b
100
AcDbEntity
  8
0
 62
7
100
AcDbSpline
 70
8
 71
3
 72
8
 73
4
 74
0
 40
0
 40
0
 40
0
 40
0
 40
1
 40
1
 40
1
 40
1
 10
533.424895
 20
29.500434
 30
0.0
 10
532.184497
 20
30.740832
 30
0.0
 10
530.502156
 20
31.437680
 30
0.0
 10
528.747969
 20
31.437680
 30
0.0
  0
LWPOLYLINE
  5
11c
100
AcDbEntity
  8
0
 62
7
100
AcDbPolyline
 90
1
 70
1
 10
421.082079
 20
31.437680
 30
0.0
  0
SPLINE
  5
11d
100
AcDbEntity
  8
0
 62
7
100
AcDbSpline
 70
8
 71
3
 72
8
 73
4
 74
0
 40
0
 40
0
 40
0
 40
0
 40
1
 40
1
 40
1
 40
1
 10
436.615937
 20
-147.076965
 30
0.0
 10
433.711452
 20
-147.076965
 30
0.0
 10
431.092962
 20
-148.826585
 30
0.0
 10
429.981464
 20
-151.509979
 30
0.0
  0
SPLINE
  5
11e
100
AcDbEntity
  8
0
 62
7
100
AcDbSpline
 70
8
 71
3
 72
8
 73
4
 74
0
 40
0
 40
0
 40
0
 40
0
 40
1
 40
1
 40
1
 40
1
 10
429.981464
 20
-151.509979
 30
0.0
 10
428.869965
 20
-154.193373
 30
0.0
 10
429.484350
 20
-157.282093
 30
0.0
 10
431.538131
 20
-159.335874
 30
0.0
  0
SPLINE
  5
11f
100
AcDbEntity
  8
0
 62
7
100
AcDbSpline
 70
8
 71
3
 72
8
 73
4
 74
0
 40
0
 40
0
 40
0
 40
0
 40
1
 40
1
 40
1
 40
1
 10
431.538131
 20
-159.335874
 30
0.0
 10
433.591912
 20
-161.389655
 30
0.0
 10
436.680632
 20
-162.004039
 30
0.0
 10
439.364026
 20
-160.892541
 30
0.0
  0
SPLINE
  5
120
100
AcDbEntity
  8
0
 62
7
100
AcDbSpline
 70
8
 71
3
 72
8
 73
4
 74
0
 40
0
 40
0
 40
0
 40
0
 40
1
 40
1
 40
1
 40
1
 10
439.364026
 20
-160.892541
 30
0.0
 10
442.047420
 20
-159.781043
 30
0.0
 10
443.797039
 20
-157.162552
 30
0.0
 10
443.797039
 20
-154.258068
 30
0.0
  0
SPLINE
  5
121
100
AcDbEntity
  8
0
 62
7
100
AcDbSpline
 70
8
 71
3
 72
8
 73
4
 74
0
 40
0
 40
0
 40
0
 40
0
 40
1
 40
1
 40
1
 40
1
 10
443.797039
 20
-154.258068
 30
0.0
 10
443.797039
 20
-152.353521
 30
0.0
 10
443.040461
 20
-150.526979
 30
0.0
 10
441.693743
 20
-149.180262
 30
0.0
  0
SPLINE
  5
122
100
AcDbEntity
  8
0
 62
7
100
AcDbSpline
 70
8
 71
3
 72
8
 73
4
 74
0
 40
0
 40
0
 40
0
 40
0
 40
1
 40
1
 40
1
 40
1
 10
441.693743
 20
-149.180262
 30
0.0
 10
440.347025
 20
-147.833544
 30
0.0
 10
438.520484
 20
-147.076965
 30
0.0
 10
436.615937
 20
-147.076965
 30
0.0
  0
LWPOLYLINE
  5
123
100
AcDbEntity
  8
0
 62
7
100
AcDbPolyline
 90
1
 70
1
 10
528.747969
 20
31.437680
 30
0.0
  0
SPLINE
  5
124
100
AcDbEntity
  8
0
 62
7
100
AcDbSpline
 70
8
 71
3
 72
8
 73
4
 74
0
 40
0
 40
0
 40
0
 40
0
 40
1
 40
1
 40
1
 40
1
 10
496.055055
 20
-147.076965
 30
0.0
 10
493.150570
 20
-147.076965
 30
0.0
 10
490.532080
 20
-148.826585
 30
0.0
 10
489.420582
 20
-151.509979
 30
0.0
  0
SPLINE
  5
125
100
AcDbEntity
  8
0
 62
7
100
AcDbSpline
 70
8
 71
3
 72
8
 73
4
 74
0
 40
0
 40
0
 40
0
 40
0
 40
1
 40
1
 40
1
 40
1
 10
489.420582
 20
-151.509979
 30
0.0
 10
488.309083
 20
-154.193373
 30
0.0
 10
488.923468
 20
-157.282093
 30
0.0
 10
490.977249
 20
-159.335874
 30
0.0
  0
SPLINE
  5
126
100
AcDbEntity
  8
0
 62
7
100
AcDbSpline
 70
8
 71
3
 72
8
 73
4
 74
0
 40
0
 40
0
 40
0
 40
0
 40
1
 40
1
 40
1
 40
1
 10
490.977249
 20
-159.335874
 30
0.0
 10
493.031030
 20
-161.389655
 30
0.0
 10
496.119750
 20
-162.004039
 30
0.0
 10
498.803144
 20
-160.892541
 30
0.0
  0
SPLINE
  5
127
100
AcDbEntity
  8
0
 62
7
100
AcDbSpline
 70
8
 71
3
 72
8
 73
4
 74
0
 40
0
 40
0
 40
0
 40
0
 40
1
 40
1
 40
1
 40
1
 10
498.803144
 20
-160.892541
 30
0.0
 10
501.486538
 20
-159.781043
 30
0.0
 10
503.236157
 20
-157.162552
 30
0.0
 10
503.236157
 20
-154.258068
 30
0.0
  0
SPLINE
  5
128
100
AcDbEntity
  8
0
 62
7
100
AcDbSpline
 70
8
 71
3
 72
8
 73
4
 74
0
 40
0
 40
0
 40
0
 40
0
 40
1
 40
1
 40
1
 40
1
 10
503.236157
 20
-154.258068
 30
0.0
 10
503.236157
 20
-152.353521
 30
0.0
 10
502.479579
 20
-150.526979
 30
0.0
 10
501.132861
 20
-149.180262
 30
0.0
  0
SPLINE
  5
129
100
AcDbEntity
  8
0
 62
7
100
AcDbSpline
 70
8
 71
3
 72
8
 73
4
 74
0
 40
0
 40
0
 40
0
 40
0
 40
1
 40
1
 40
1
 40
1
 10
501.132861
 20
-149.180262
 30
0.0
 10
499.786143
 20
-147.833544
 30
0.0
 10
497.959602
 20
-147.076965
 30
0.0
 10
496.055055
 20
-147.076965
 30
0.0
  0
LWPOLYLINE
  5
12a
100
AcDbEntity
  8
0
 62
7
100
AcDbPolyline
 90
1
 70
1
 10
436.615937
 20
-147.076965
 30
0.0
  0
SPLINE
  5
12b
100
AcDbEntity
  8
0
 62
7
100
AcDbSpline
 70
8
 71
3
 72
8
 73
4
 74
0
 40
0
 40
0
 40
0
 40
0
 40
1
 40
1
 40
1
 40
1
 10
367.488378
 20
61.779728
 30
0.0
 10
364.583893
 20
61.779728
 30
0.0
 10
361.965403
 20
60.030108
 30
0.0
 10
360.853904
 20
57.346714
 30
0.0
  0
SPLINE
  5
12c
100
AcDbEntity
  8
0
 62
7
100
AcDbSpline
 70
8
 71
3
 72
8
 73
4
 74
0
 40
0
 40
0
 40
0
 40
0
 40
1
 40
1
 40
1
 40
1
 10
360.853904
 20
57.346714
 30
0.0
 10
359.742406
 20
54.663320
 30
0.0
 10
360.356791
 20
51.574600
 30
0.0
 10
362.410572
 20
49.520819
 30
0.0
  0
SPLINE
  5
12d
100
AcDbEntity
  8
0
 62
7
100
AcDbSpline
 70
8
 71
3
 72
8
 73
4
 74
0
 40
0
 40
0
 40
0
 40
0
 40
1
 40
1
 40
1
 40
1
 10
362.410572
 20
49.520819
 30
0.0
 10
364.464353
 20
47.467038
 30
0.0
 10
367.553073
 20
46.852653
 30
0.0
 10
370.236467
 20
47.964152
 30
0.0
  0
SPLINE
  5
12e
100
AcDbEntity
  8
0
 62
7
100
AcDbSpline
 70
8
 71
3
 72
8
 73
4
 74
0
 40
0
 40
0
 40
0
 40
0
 40
1
 40
1
 40
1
 40
1
 10
370.236467
 20
47.964152
 30
0.0
 10
372.919861
 20
49.075650
 30
0.0
 10
374.669480
 20
51.694140
 30
0.0
 10
374.669480
 20
54.598625
 30
0.0
  0
SPLINE
  5
12f
100
AcDbEntity
  8
0
 62
7
100
AcDbSpline
 70
8
 71
3
 72
8
 73
4
 74
0
 40
0
 40
0
 40
0
 40
0
 40
1
 40
1
 40
1
 40
1
 10
374.669480
 20
54.598625
 30
0.0
 10
374.669480
 20
56.503172
 30
0.0
 10
373.912902
 20
58.329713
 30
0.0
 10
372.566184
 20
59.676431
 30
0.0
  0
SPLINE
  5
130
100
AcDbEntity
  8
0
 62
7
100
AcDbSpline
 70
8
 71
3
 72
8
 73
4
 74
0
 40
0
 40
0
 40
0
 40
0
 40
1
 40
1
 40
1
 40
1
 10
372.566184
 20
59.676431
 30
0.0
 10
371.219466
 20
61.023149
 30
0.0
 10
369.392925
 20
61.779728
 30
0.0
 10
367.488378
 20
61.779728
 30
0.0
  0
LWPOLYLINE
  5
131
100
AcDbEntity
  8
0
 62
7
100
AcDbPolyline
 90
1
 70
1
 10
496.055055
 20
-147.076965
 30
0.0
  0
SPLINE
  5
132
100
AcDbEntity
  8
0
 62
7
100
AcDbSpline
 70
8
 71
3
 72
8
 73
4
 74
0
 40
0
 40
0
 40
0
 40
0
 40
1
 40
1
 40
1
 40
1
 10
644.824441
 20
10.017964
 30
0.0
 10
639.932677
 20
10.017964
 30
0.0
 10
635.522588
 20
7.071236
 30
0.0
 10
633.650591
 20
2.551836
 30
0.0
  0
SPLINE
  5
133
100
AcDbEntity
  8
0
 62
7
100
AcDbSpline
 70
8
 71
3
 72
8
 73
4
 74
0
 40
0
 40
0
 40
0
 40
0
 40
1
 40
1
 40
1
 40
1
 10
633.650591
 20
2.551836
 30
0.0
 10
631.778594
 20
-1.967565
 30
0.0
 10
632.813347
 20
-7.169620
 30
0.0
 10
636.272346
 20
-10.628619
 30
0.0
  0
SPLINE
  5
134
100
AcDbEntity
  8
0
 62
7
100
AcDbSpline
 70
8
 71
3
 72
8
 73
4
 74
0
 40
0
 40
0
 40
0
 40
0
 40
1
 40
1
 40
1
 40
1
 10
636.272346
 20
-10.628619
 30
0.0
 10
639.731346
 20
-14.087618
 30
0.0
 10
644.933401
 20
-15.122371
 30
0.0
 10
649.452801
 20
-13.250375
 30
0.0
  0
SPLINE
  5
135
100
AcDbEntity
  8
0
 62
7
100
AcDbSpline
 70
8
 71
3
 72
8
 73
4
 74
0
 40
0
 40
0
 40
0
 40
0
 40
1
 40
1
 40
1
 40
1
 10
649.452801
 20
-13.250375
 30
0.0
 10
653.972202
 20
-11.378378
 30
0.0
 10
656.918929
 20
-6.968288
 30
0.0
 10
656.918929
 20
-2.076524
 30
0.0
  0
SPLINE
  5
136
100
AcDbEntity
  8
0
 62
7
100
AcDbSpline
 70
8
 71
3
 72
8
 73
4
 74
0
 40
0
 40
0
 40
0
 40
0
 40
1
 40
1
 40
1
 40
1
 10
656.918929
 20
-2.076524
 30
0.0
 10
656.918929
 20
1.131133
 30
0.0
 10
655.644692
 20
4.207414
 30
0.0
 10
653.376536
 20
6.475570
 30
0.0
  0
SPLINE
  5
137
100
AcDbEntity
  8
0
 62
7
100
AcDbSpline
 70
8
 71
3
 72
8
 73
4
 74
0
 40
0
 40
0
 40
0
 40
0
 40
1
 40
1
 40
1
 40
1
 10
653.376536
 20
6.475570
 30
0.0
 10
651.108379
 20
8.743727
 30
0.0
 10
648.032099
 20
10.017964
 30
0.0
 10
644.824441
 20
10.017964
 30
0.0
  0
LWPOLYLINE
  5
138
100
AcDbEntity
  8
0
 62
7
100
AcDbPolyline
 90
1
 70
1
 10
367.488378
 20
61.779728
 30
0.0
  0
SPLINE
  5
139
100
AcDbEntity
  8
0
 62
7
100
AcDbSpline
 70
8
 71
3
 72
8
 73
4
 74
0
 40
0
 40
0
 40
0
 40
0
 40
1
 40
1
 40
1
 40
1
 10
287.846551
 20
10.017964
 30
0.0
 10
282.954787
 20
10.017964
 30
0.0
 10
278.544698
 20
7.071236
 30
0.0
 10
276.672701
 20
2.551836
 30
0.0
  0
SPLINE
  5
13a
100
AcDbEntity
  8
0
 62
7
100
AcDbSpline
 70
8
 71
3
 72
8
 73
4
 74
0
 40
0
 40
0
 40
0
 40
0
 40
1
 40
1
 40
1
 40
1
 10
276.672701
 20
2.551836
 30
0.0
 10
274.800704
 20
-1.967565
 30
0.0
 10
275.835457
 20
-7.169620
 30
0.0
 10
279.294457
 20
-10.628619
 30
0.0
  0
SPLINE
  5
13b
100
AcDbEntity
  8
0
 62
7
100
AcDbSpline
 70
8
 71
3
 72
8
 73
4
 74
0
 40
0
 40
0
 40
0
 40
0
 40
1
 40
1
 40
1
 40
1
 10
279.294457
 20
-10.628619
 30
0.0
 10
282.753456
 20
-14.087618
 30
0.0
 10
287.955511
 20
-15.122371
 30
0.0
 10
292.474911
 20
-13.250375
 30
0.0
  0
SPLINE
  5
13c
100
AcDbEntity
  8
0
 62
7
100
AcDbSpline
 70
8
 71
3
 72
8
 73
4
 74
0
 40
0
 40
0
 40
0
 40
0
 40
1
 40
1
 40
1
 40
1
 10
292.474911
 20
-13.250375
 30
0.0
 10
296.994312
 20
-11.378378
 30
0.0
 10
299.941039
 20
-6.968288
 30
0.0
 10
299.941039
 20
-2.076524
 30
0.0
  0
SPLINE
  5
13d
100
AcDbEntity
  8
0
 62
7
100
AcDbSpline
 70
8
 71
3
 72
8
 73
4
 74
0
 40
0
 40
0
 40
0
 40
0
 40
1
 40
1
 40
1
 40
1
 10
299.941039
 20
-2.076524
 30
0.0
 10
299.941039
 20
1.131133
 30
0.0
 10
298.666802
 20
4.207414
 30
0.0
 10
296.398646
 20
6.475570
 30
0.0
  0
SPLINE
  5
13e
100
AcDbEntity
  8
0
 62
7
100
AcDbSpline
 70
8
 71
3
 72
8
 73
4
 74
0
 40
0
 40
0
 40
0
 40
0
 40
1
 40
1
 40
1
 40
1
 10
296.398646
 20
6.475570
 30
0.0
 10
294.130489
 20
8.743727
 30
0.0
 10
291.054209
 20
10.017964
 30
0.0
 10
287.846551
 20
10.017964
 30
0.0
  0
LWPOLYLINE
  5
13f
100
AcDbEntity
  8
0
 62
7
100
AcDbPolyline
 90
1
 70
1
 10
644.824441
 20
10.017964
 30
0.0
  0
SPLINE
  5
140
100
AcDbEntity
  8
0
 62
7
100
AcDbSpline
 70
8
 71
3
 72
8
 73
4
 74
0
 40
0
 40
0
 40
0
 40
0
 40
1
 40
1
 40
1
 40
1
 10
223.904126
 20
-127.045469
 30
0.0
 10
220.999641
 20
-127.045469
 30
0.0
 10
218.381151
 20
-128.795089
 30
0.0
 10
217.269652
 20
-131.478483
 30
0.0
  0
SPLINE
  5
141
100
AcDbEntity
  8
0
 62
7
100
AcDbSpline
 70
8
 71
3
 72
8
 73
4
 74
0
 40
0
 40
0
 40
0
 40
0
 40
1
 40
1
 40
1
 40
1
 10
217.269652
 20
-131.478483
 30
0.0
 10
216.158154
 20
-134.161877
 30
0.0
 10
216.772539
 20
-137.250597
 30
0.0
 10
218.826320
 20
-139.304378
 30
0.0
  0
SPLINE
  5
142
100
AcDbEntity
  8
0
 62
7
100
AcDbSpline
 70
8
 71
3
 72
8
 73
4
 74
0
 40
0
 40
0
 40
0
 40
0
 40
1
 40
1
 40
1
 40
1
 10
218.826320
 20
-139.304378
 30
0.0
 10
220.880101
 20
-141.358159
 30
0.0
 10
223.968821
 20
-141.972543
 30
0.0
 10
226.652215
 20
-140.861045
 30
0.0
  0
SPLINE
  5
143
100
AcDbEntity
  8
0
 62
7
100
AcDbSpline
 70
8
 71
3
 72
8
 73
4
 74
0
 40
0
 40
0
 40
0
 40
0
 40
1
 40
1
 40
1
 40
1
 10
226.652215
 20
-140.861045
 30
0.0
 10
229.335609
 20
-139.749547
 30
0.0
 10
231.085228
 20
-137.131056
 30
0.0
 10
231.085228
 20
-134.226572
 30
0.0
  0
SPLINE
  5
144
100
AcDbEntity
  8
0
 62
7
100
AcDbSpline
 70
8
 71
3
 72
8
 73
4
 74
0
 40
0
 40
0
 40
0
 40
0
 40
1
 40
1
 40
1
 40
1
 10
231.085228
 20
-134.226572
 30
0.0
 10
231.085228
 20
-132.322025
 30
0.0
 10
230.328650
 20
-130.495483
 30
0.0
 10
228.981932
 20
-129.148765
 30
0.0
  0
SPLINE
  5
145
100
AcDbEntity
  8
0
 62
7
100
AcDbSpline
 70
8
 71
3
 72
8
 73
4
 74
0
 40
0
 40
0
 40
0
 40
0
 40
1
 40
1
 40
1
 40
1
 10
228.981932
 20
-129.148765
 30
0.0
 10
227.635214
 20
-127.802048
 30
0.0
 10
225.808673
 20
-127.045469
 30
0.0
 10
223.904126
 20
-127.045469
 30
0.0
  0
LWPOLYLINE
  5
146
100
AcDbEntity
  8
0
 62
7
100
AcDbPolyline
 90
1
 70
1
 10
287.846551
 20
10.017964
 30
0.0
  0
SPLINE
  5
147
100
AcDbEntity
  8
0
 62
7
100
AcDbSpline
 70
8
 71
3
 72
8
 73
4
 74
0
 40
0
 40
0
 40
0
 40
0
 40
1
 40
1
 40
1
 40
1
 10
565.182614
 20
61.779728
 30
0.0
 10
562.278129
 20
61.779728
 30
0.0
 10
559.659639
 20
60.030108
 30
0.0
 10
558.548141
 20
57.346714
 30
0.0
  0
SPLINE
  5
148
100
AcDbEntity
  8
0
 62
7
100
AcDbSpline
 70
8
 71
3
 72
8
 73
4
 74
0
 40
0
 40
0
 40
0
 40
0
 40
1
 40
1
 40
1
 40
1
 10
558.548141
 20
57.346714
 30
0.0
 10
557.436642
 20
54.663320
 30
0.0
 10
558.051027
 20
51.574600
 30
0.0
 10
560.104808
 20
49.520819
 30
0.0
  0
SPLINE
  5
149
100
AcDbEntity
  8
0
 62
7
100
AcDbSpline
 70
8
 71
3
 72
8
 73
4
 74
0
 40
0
 40
0
 40
0
 40
0
 40
1
 40
1
 40
1
 40
1
 10
560.104808
 20
49.520819
 30
0.0
 10
562.158589
 20
47.467038
 30
0.0
 10
565.247309
 20
46.852653
 30
0.0
 10
567.930703
 20
47.964152
 30
0.0
  0
SPLINE
  5
14a
100
AcDbEntity
  8
0
 62
7
100
AcDbSpline
 70
8
 71
3
 72
8
 73
4
 74
0
 40
0
 40
0
 40
0
 40
0
 40
1
 40
1
 40
1
 40
1
 10
567.930703
 20
47.964152
 30
0.0
 10
570.614097
 20
49.075650
 30
0.0
 10
572.363717
 20
51.694140
 30
0.0
 10
572.363717
 20
54.598625
 30
0.0
  0
SPLINE
  5
14b
100
AcDbEntity
  8
0
 62
7
100
AcDbSpline
 70
8
 71
3
 72
8
 73
4
 74
0
 40
0
 40
0
 40
0
 40
0
 40
1
 40
1
 40
1
 40
1
 10
572.363717
 20
54.598625
 30
0.0
 10
572.363717
 20
56.503172
 30
0.0
 10
571.607138
 20
58.329713
 30
0.0
 10
570.260420
 20
59.676431
 30
0.0
  0
SPLINE
  5
14c
100
AcDbEntity
  8
0
 62
7
100
AcDbSpline
 70
8
 71
3
 72
8
 73
4
 74
0
 40
0
 40
0
 40
0
 40
0
 40
1
 40
1
 40
1
 40
1
 10
570.260420
 20
59.676431
 30
0.0
 10
568.913702
 20
61.023149
 30
0.0
 10
567.087161
 20
61.779728
 30
0.0
 10
565.182614
 20
61.779728
 30
0.0
  0
LWPOLYLINE
  5
14d
100
AcDbEntity
  8
0
 62
7
100
AcDbPolyline
 90
1
 70
1
 10
223.904126
 20
-127.045469
 30
0.0
  0
SPLINE
  5
14e
100
AcDbEntity
  8
0
 62
7
100
AcDbSpline
 70
8
 71
3
 72
8
 73
4
 74
0
 40
0
 40
0
 40
0
 40
0
 40
1
 40
1
 40
1
 40
1
 10
708.779717
 20
-127.007674
 30
0.0
 10
705.875232
 20
-127.007674
 30
0.0
 10
703.256741
 20
-128.757293
 30
0.0
 10
702.145243
 20
-131.440687
 30
0.0
  0
SPLINE
  5
14f
100
AcDbEntity
  8
0
 62
7
100
AcDbSpline
 70
8
 71
3
 72
8
 73
4
 74
0
 40
0
 40
0
 40
0
 40
0
 40
1
 40
1
 40
1
 40
1
 10
702.145243
 20
-131.440687
 30
0.0
 10
701.033745
 20
-134.124082
 30
0.0
 10
701.648129
 20
-137.212802
 30
0.0
 10
703.701910
 20
-139.266583
 30
0.0
  0
SPLINE
  5
150
100
AcDbEntity
  8
0
 62
7
100
AcDbSpline
 70
8
 71
3
 72
8
 73
4
 74
0
 40
0
 40
0
 40
0
 40
0
 40
1
 40
1
 40
1
 40
1
 10
703.701910
 20
-139.266583
 30
0.0
 10
705.755691
 20
-141.320363
 30
0.0
 10
708.844411
 20
-141.934748
 30
0.0
 10
711.527805
 20
-140.823250
 30
0.0
  0
SPLINE
  5
151
100
AcDbEntity
  8
0
 62
7
100
AcDbSpline
 70
8
 71
3
 72
8
 73
4
 74
0
 40
0
 40
0
 40
0
 40
0
 40
1
 40
1
 40
1
 40
1
 10
711.527805
 20
-140.823250
 30
0.0
 10
714.211199
 20
-139.711752
 30
0.0
 10
715.960819
 20
-137.093261
 30
0.0
 10
715.960819
 20
-134.188776
 30
0.0
  0
SPLINE
  5
152
100
AcDbEntity
  8
0
 62
7
100
AcDbSpline
 70
8
 71
3
 72
8
 73
4
 74
0
 40
0
 40
0
 40
0
 40
0
 40
1
 40
1
 40
1
 40
1
 10
715.960819
 20
-134.188776
 30
0.0
 10
715.960819
 20
-132.284230
 30
0.0
 10
715.204241
 20
-130.457688
 30
0.0
 10
713.857523
 20
-129.110970
 30
0.0
  0
SPLINE
  5
153
100
AcDbEntity
  8
0
 62
7
100
AcDbSpline
 70
8
 71
3
 72
8
 73
4
 74
0
 40
0
 40
0
 40
0
 40
0
 40
1
 40
1
 40
1
 40
1
 10
713.857523
 20
-129.110970
 30
0.0
 10
712.510805
 20
-127.764252
 30
0.0
 10
710.684263
 20
-127.007674
 30
0.0
 10
708.779717
 20
-127.007674
 30
0.0
  0
LWPOLYLINE
  5
154
100
AcDbEntity
  8
0
 62
7
100
AcDbPolyline
 90
1
 70
1
 10
565.182614
 20
61.779728
 30
0.0
  0
LWPOLYLINE
  5
155
100
AcDbEntity
  8
0
 62
7
100
AcDbPolyline
 90
1
 70
1
 10
708.779717
 20
-127.007674
 30
0.0
  0
LWPOLYLINE
  5
156
100
AcDbEntity
  8
0
 62
7
100
AcDbPolyline
 90
3
 70
0
 10
21.659400
 20
53.473900
 30
0.0
 10
21.659400
 20
39.473900
 30
0.0
 10
35.659400
 20
39.473900
 30
0.0
  0
LWPOLYLINE
  5
157
100
AcDbEntity
  8
0
 62
7
100
AcDbPolyline
 90
2
 70
0
 10
35.659400
 20
53.473900
 30
0.0
 10
21.659400
 20
53.473900
 30
0.0
  0
LWPOLYLINE
  5
158
100
AcDbEntity
  8
0
 62
7
100
AcDbPolyline
 90
2
 70
0
 10
35.659400
 20
39.473900
 30
0.0
 10
35.659400
 20
53.473900
 30
0.0
  0
LWPOLYLINE
  5
159
100
AcDbEntity
  8
0
 62
7
100
AcDbPolyline
 90
3
 70
0
 10
59.659400
 20
26.473900
 30
0.0
 10
59.659400
 20
12.473900
 30
0.0
 10
73.659400
 20
12.473900
 30
0.0
  0
LWPOLYLINE
  5
15a
100
AcDbEntity
  8
0
 62
7
100
AcDbPolyline
 90
2
 70
0
 10
73.659400
 20
26.473900
 30
0.0
 10
59.659400
 20
26.473900
 30
0.0
  0
LWPOLYLINE
  5
15b
100
AcDbEntity
  8
0
 62
7
100
AcDbPolyline
 90
2
 70
0
 10
73.659400
 20
12.473900
 30
0.0
 10
73.659400
 20
26.473900
 30
0.0
  0
LWPOLYLINE
  5
15c
100
AcDbEntity
  8
0
 62
7
100
AcDbPolyline
 90
3
 70
0
 10
40.659400
 20
58.473900
 30
0.0
 10
40.659400
 20
44.473900
 30
0.0
 10
54.659400
 20
44.473900
 30
0.0
  0
LWPOLYLINE
  5
15d
100
AcDbEntity
  8
0
 62
7
100
AcDbPolyline
 90
2
 70
0
 10
54.659400
 20
58.473900
 30
0.0
 10
40.659400
 20
58.473900
 30
0.0
  0
LWPOLYLINE
  5
15e
100
AcDbEntity
  8
0
 62
7
100
AcDbPolyline
 90
2
 70
0
 10
54.659400
 20
44.473900
 30
0.0
 10
54.659400
 20
58.473900
 30
0.0
  0
LWPOLYLINE
  5
15f
100
AcDbEntity
  8
0
 62
7
100
AcDbPolyline
 90
3
 70
0
 10
103.680200
 20
21.180400
 30
0.0
 10
98.891900
 20
8.024700
 30
0.0
 10
112.047600
 20
3.236400
 30
0.0
  0
LWPOLYLINE
  5
160
100
AcDbEntity
  8
0
 62
7
100
AcDbPolyline
 90
2
 70
0
 10
116.835900
 20
16.392100
 30
0.0
 10
103.680200
 20
21.180400
 30
0.0
  0
LWPOLYLINE
  5
161
100
AcDbEntity
  8
0
 62
7
100
AcDbPolyline
 90
2
 70
0
 10
112.047600
 20
3.236400
 30
0.0
 10
116.835900
 20
16.392100
 30
0.0
  0
LWPOLYLINE
  5
162
100
AcDbEntity
  8
0
 62
7
100
AcDbPolyline
 90
3
 70
0
 10
78.659400
 20
50.973900
 30
0.0
 10
78.659400
 20
36.973900
 30
0.0
 10
92.659400
 20
36.973900
 30
0.0
  0
LWPOLYLINE
  5
163
100
AcDbEntity
  8
0
 62
7
100
AcDbPolyline
 90
2
 70
0
 10
92.659400
 20
50.973900
 30
0.0
 10
78.659400
 20
50.973900
 30
0.0
  0
LWPOLYLINE
  5
164
100
AcDbEntity
  8
0
 62
7
100
AcDbPolyline
 90
2
 70
0
 10
92.659400
 20
36.973900
 30
0.0
 10
92.659400
 20
50.973900
 30
0.0
  0
LWPOLYLINE
  5
165
100
AcDbEntity
  8
0
 62
7
100
AcDbPolyline
 90
3
 70
0
 10
2.659400
 20
40.973900
 30
0.0
 10
2.659400
 20
26.973900
 30
0.0
 10
16.659400
 20
26.973900
 30
0.0
  0
LWPOLYLINE
  5
166
100
AcDbEntity
  8
0
 62
7
100
AcDbPolyline
 90
2
 70
0
 10
16.659400
 20
40.973900
 30
0.0
 10
2.659400
 20
40.973900
 30
0.0
  0
LWPOLYLINE
  5
167
100
AcDbEntity
  8
0
 62
7
100
AcDbPolyline
 90
2
 70
0
 10
16.659400
 20
26.973900
 30
0.0
 10
16.659400
 20
40.973900
 30
0.0
  0
LWPOLYLINE
  5
168
100
AcDbEntity
  8
0
 62
7
100
AcDbPolyline
 90
3
 70
0
 10
59.659400
 20
69.473900
 30
0.0
 10
59.659400
 20
55.473900
 30
0.0
 10
73.659400
 20
55.473900
 30
0.0
  0
LWPOLYLINE
  5
169
100
AcDbEntity
  8
0
 62
7
100
AcDbPolyline
 90
2
 70
0
 10
73.659400
 20
69.473900
 30
0.0
 10
59.659400
 20
69.473900
 30
0.0
  0
LWPOLYLINE
  5
16a
100
AcDbEntity
  8
0
 62
7
100
AcDbPolyline
 90
2
 70
0
 10
73.659400
 20
55.473900
 30
0.0
 10
73.659400
 20
69.473900
 30
0.0
  0
LWPOLYLINE
  5
16b
100
AcDbEntity
  8
0
 62
7
100
AcDbPolyline
 90
3
 70
0
 10
81.901400
 20
25.752800
 30
0.0
 10
79.470300
 20
11.965500
 30
0.0
 10
93.257600
 20
9.534400
 30
0.0
  0
LWPOLYLINE
  5
16c
100
AcDbEntity
  8
0
 62
7
100
AcDbPolyline
 90
2
 70
0
 10
95.688700
 20
23.321700
 30
0.0
 10
81.901400
 20
25.752800
 30
0.0
  0
LWPOLYLINE
  5
16d
100
AcDbEntity
  8
0
 62
7
100
AcDbPolyline
 90
2
 70
0
 10
93.257600
 20
9.534400
 30
0.0
 10
95.688700
 20
23.321700
 30
0.0
  0
LWPOLYLINE
  5
16e
100
AcDbEntity
  8
0
 62
7
100
AcDbPolyline
 90
3
 70
0
 10
59.659400
 20
85.473900
 30
0.0
 10
59.659400
 20
71.473900
 30
0.0
 10
73.659400
 20
71.473900
 30
0.0
  0
LWPOLYLINE
  5
16f
100
AcDbEntity
  8
0
 62
7
100
AcDbPolyline
 90
2
 70
0
 10
73.659400
 20
85.473900
 30
0.0
 10
59.659400
 20
85.473900
 30
0.0
  0
LWPOLYLINE
  5
170
100
AcDbEntity
  8
0
 62
7
100
AcDbPolyline
 90
2
 70
0
 10
73.659400
 20
71.473900
 30
0.0
 10
73.659400
 20
85.473900
 30
0.0
  0
LWPOLYLINE
  5
171
100
AcDbEntity
  8
0
 62
7
100
AcDbPolyline
 90
3
 70
0
 10
59.659400
 20
53.473900
 30
0.0
 10
59.659400
 20
39.473900
 30
0.0
 10
73.659400
 20
39.473900
 30
0.0
  0
LWPOLYLINE
  5
172
100
AcDbEntity
  8
0
 62
7
100
AcDbPolyline
 90
2
 70
0
 10
73.659400
 20
53.473900
 30
0.0
 10
59.659400
 20
53.473900
 30
0.0
  0
LWPOLYLINE
  5
173
100
AcDbEntity
  8
0
 62
7
100
AcDbPolyline
 90
2
 70
0
 10
73.659400
 20
39.473900
 30
0.0
 10
73.659400
 20
53.473900
 30
0.0
  0
LWPOLYLINE
  5
174
100
AcDbEntity
  8
0
 62
7
100
AcDbPolyline
 90
3
 70
0
 10
21.659400
 20
69.473900
 30
0.0
 10
21.659400
 20
55.473900
 30
0.0
 10
35.659400
 20
55.473900
 30
0.0
  0
LWPOLYLINE
  5
175
100
AcDbEntity
  8
0
 62
7
100
AcDbPolyline
 90
2
 70
0
 10
35.659400
 20
69.473900
 30
0.0
 10
21.659400
 20
69.473900
 30
0.0
  0
LWPOLYLINE
  5
176
100
AcDbEntity
  8
0
 62
7
100
AcDbPolyline
 90
2
 70
0
 10
35.659400
 20
55.473900
 30
0.0
 10
35.659400
 20
69.473900
 30
0.0
  0
LWPOLYLINE
  5
177
100
AcDbEntity
  8
0
 62
7
100
AcDbPolyline
 90
3
 70
0
 10
40.659400
 20
90.473900
 30
0.0
 10
40.659400
 20
76.473900
 30
0.0
 10
54.659400
 20
76.473900
 30
0.0
  0
LWPOLYLINE
  5
178
100
AcDbEntity
  8
0
 62
7
100
AcDbPolyline
 90
2
 70
0
 10
54.659400
 20
90.473900
 30
0.0
 10
40.659400
 20
90.473900
 30
0.0
  0
LWPOLYLINE
  5
179
100
AcDbEntity
  8
0
 62
7
100
AcDbPolyline
 90
2
 70
0
 10
54.659400
 20
76.473900
 30
0.0
 10
54.659400
 20
90.473900
 30
0.0
  0
LWPOLYLINE
  5
17a
100
AcDbEntity
  8
0
 62
7
100
AcDbPolyline
 90
3
 70
0
 10
78.659400
 20
66.973900
 30
0.0
 10
78.659400
 20
52.973900
 30
0.0
 10
92.659400
 20
52.973900
 30
0.0
  0
LWPOLYLINE
  5
17b
100
AcDbEntity
  8
0
 62
7
100
AcDbPolyline
 90
2
 70
0
 10
92.659400
 20
66.973900
 30
0.0
 10
78.659400
 20
66.973900
 30
0.0
  0
LWPOLYLINE
  5
17c
100
AcDbEntity
  8
0
 62
7
100
AcDbPolyline
 90
2
 70
0
 10
92.659400
 20
52.973900
 30
0.0
 10
92.659400
 20
66.973900
 30
0.0
  0
LWPOLYLINE
  5
17d
100
AcDbEntity
  8
0
 62
7
100
AcDbPolyline
 90
3
 70
0
 10
78.659400
 20
82.973900
 30
0.0
 10
78.659400
 20
68.973900
 30
0.0
 10
92.659400
 20
68.973900
 30
0.0
  0
LWPOLYLINE
  5
17e
100
AcDbEntity
  8
0
 62
7
100
AcDbPolyline
 90
2
 70
0
 10
92.659400
 20
82.973900
 30
0.0
 10
78.659400
 20
82.973900
 30
0.0
  0
LWPOLYLINE
  5
17f
100
AcDbEntity
  8
0
 62
7
100
AcDbPolyline
 90
2
 70
0
 10
92.659400
 20
68.973900
 30
0.0
 10
92.659400
 20
82.973900
 30
0.0
  0
LWPOLYLINE
  5
180
100
AcDbEntity
  8
0
 62
7
100
AcDbPolyline
 90
3
 70
0
 10
40.659400
 20
74.473900
 30
0.0
 10
40.659400
 20
60.473900
 30
0.0
 10
54.659400
 20
60.473900
 30
0.0
  0
LWPOLYLINE
  5
181
100
AcDbEntity
  8
0
 62
7
100
AcDbPolyline
 90
2
 70
0
 10
54.659400
 20
74.473900
 30
0.0
 10
40.659400
 20
74.473900
 30
0.0
  0
LWPOLYLINE
  5
182
100
AcDbEntity
  8
0
 62
7
100
AcDbPolyline
 90
2
 70
0
 10
54.659400
 20
60.473900
 30
0.0
 10
54.659400
 20
74.473900
 30
0.0
  0
LWPOLYLINE
  5
183
100
AcDbEntity
  8
0
 62
7
100
AcDbPolyline
 90
3
 70
0
 10
21.659400
 20
85.473900
 30
0.0
 10
21.659400
 20
71.473900
 30
0.0
 10
35.659400
 20
71.473900
 30
0.0
  0
LWPOLYLINE
  5
184
100
AcDbEntity
  8
0
 62
7
100
AcDbPolyline
 90
2
 70
0
 10
35.659400
 20
85.473900
 30
0.0
 10
21.659400
 20
85.473900
 30
0.0
  0
LWPOLYLINE
  5
185
100
AcDbEntity
  8
0
 62
7
100
AcDbPolyline
 90
2
 70
0
 10
35.659400
 20
71.473900
 30
0.0
 10
35.659400
 20
85.473900
 30
0.0
  0
LWPOLYLINE
  5
186
100
AcDbEntity
  8
0
 62
7
100
AcDbPolyline
 90
3
 70
0
 10
2.659400
 20
56.973900
 30
0.0
 10
2.659400
 20
42.973900
 30
0.0
 10
16.659400
 20
42.973900
 30
0.0
  0
LWPOLYLINE
  5
187
100
AcDbEntity
  8
0
 62
7
100
AcDbPolyline
 90
2
 70
0
 10
16.659400
 20
56.973900
 30
0.0
 10
2.659400
 20
56.973900
 30
0.0
  0
LWPOLYLINE
  5
188
100
AcDbEntity
  8
0
 62
7
100
AcDbPolyline
 90
2
 70
0
 10
16.659400
 20
42.973900
 30
0.0
 10
16.659400
 20
56.973900
 30
0.0
  0
LWPOLYLINE
  5
189
100
AcDbEntity
  8
0
 62
7
100
AcDbPolyline
 90
3
 70
0
 10
192.109800
 20
58.473900
 30
0.0
 10
192.109800
 20
44.473900
 30
0.0
 10
206.109800
 20
44.473900
 30
0.0
  0
LWPOLYLINE
  5
18a
100
AcDbEntity
  8
0
 62
7
100
AcDbPolyline
 90
2
 70
0
 10
206.109800
 20
58.473900
 30
0.0
 10
192.109800
 20
58.473900
 30
0.0
  0
LWPOLYLINE
  5
18b
100
AcDbEntity
  8
0
 62
7
100
AcDbPolyline
 90
2
 70
0
 10
206.109800
 20
44.473900
 30
0.0
 10
206.109800
 20
58.473900
 30
0.0
  0
LWPOLYLINE
  5
18c
100
AcDbEntity
  8
0
 62
7
100
AcDbPolyline
 90
3
 70
0
 10
192.109800
 20
90.473900
 30
0.0
 10
192.109800
 20
76.473900
 30
0.0
 10
206.109800
 20
76.473900
 30
0.0
  0
LWPOLYLINE
  5
18d
100
AcDbEntity
  8
0
 62
7
100
AcDbPolyline
 90
2
 70
0
 10
206.109800
 20
90.473900
 30
0.0
 10
192.109800
 20
90.473900
 30
0.0
  0
LWPOLYLINE
  5
18e
100
AcDbEntity
  8
0
 62
7
100
AcDbPolyline
 90
2
 70
0
 10
206.109800
 20
76.473900
 30
0.0
 10
206.109800
 20
90.473900
 30
0.0
  0
LWPOLYLINE
  5
18f
100
AcDbEntity
  8
0
 62
7
100
AcDbPolyline
 90
3
 70
0
 10
211.109800
 20
53.473900
 30
0.0
 10
211.109800
 20
39.473900
 30
0.0
 10
225.109800
 20
39.473900
 30
0.0
  0
LWPOLYLINE
  5
190
100
AcDbEntity
  8
0
 62
7
100
AcDbPolyline
 90
2
 70
0
 10
225.109800
 20
53.473900
 30
0.0
 10
211.109800
 20
53.473900
 30
0.0
  0
LWPOLYLINE
  5
191
100
AcDbEntity
  8
0
 62
7
100
AcDbPolyline
 90
2
 70
0
 10
225.109800
 20
39.473900
 30
0.0
 10
225.109800
 20
53.473900
 30
0.0
  0
LWPOLYLINE
  5
192
100
AcDbEntity
  8
0
 62
7
100
AcDbPolyline
 90
3
 70
0
 10
211.109800
 20
69.473900
 30
0.0
 10
211.109800
 20
55.473900
 30
0.0
 10
225.109800
 20
55.473900
 30
0.0
  0
LWPOLYLINE
  5
193
100
AcDbEntity
  8
0
 62
7
100
AcDbPolyline
 90
2
 70
0
 10
225.109800
 20
69.473900
 30
0.0
 10
211.109800
 20
69.473900
 30
0.0
  0
LWPOLYLINE
  5
194
100
AcDbEntity
  8
0
 62
7
100
AcDbPolyline
 90
2
 70
0
 10
225.109800
 20
55.473900
 30
0.0
 10
225.109800
 20
69.473900
 30
0.0
  0
LWPOLYLINE
  5
195
100
AcDbEntity
  8
0
 62
7
100
AcDbPolyline
 90
3
 70
0
 10
129.933300
 20
16.392100
 30
0.0
 10
134.721600
 20
3.236400
 30
0.0
 10
147.877300
 20
8.024700
 30
0.0
  0
LWPOLYLINE
  5
196
100
AcDbEntity
  8
0
 62
7
100
AcDbPolyline
 90
2
 70
0
 10
143.089000
 20
21.180400
 30
0.0
 10
129.933300
 20
16.392100
 30
0.0
  0
LWPOLYLINE
  5
197
100
AcDbEntity
  8
0
 62
7
100
AcDbPolyline
 90
2
 70
0
 10
147.877300
 20
8.024700
 30
0.0
 10
143.089000
 20
21.180400
 30
0.0
  0
LWPOLYLINE
  5
198
100
AcDbEntity
  8
0
 62
7
100
AcDbPolyline
 90
3
 70
0
 10
151.080500
 20
23.321700
 30
0.0
 10
153.511600
 20
9.534400
 30
0.0
 10
167.298900
 20
11.965500
 30
0.0
  0
LWPOLYLINE
  5
199
100
AcDbEntity
  8
0
 62
7
100
AcDbPolyline
 90
2
 70
0
 10
164.867900
 20
25.752800
 30
0.0
 10
151.080500
 20
23.321700
 30
0.0
  0
LWPOLYLINE
  5
19a
100
AcDbEntity
  8
0
 62
7
100
AcDbPolyline
 90
2
 70
0
 10
167.298900
 20
11.965500
 30
0.0
 10
164.867900
 20
25.752800
 30
0.0
  0
LWPOLYLINE
  5
19b
100
AcDbEntity
  8
0
 62
7
100
AcDbPolyline
 90
3
 70
0
 10
2.659400
 20
72.973900
 30
0.0
 10
2.659400
 20
58.973900
 30
0.0
 10
16.659400
 20
58.973900
 30
0.0
  0
LWPOLYLINE
  5
19c
100
AcDbEntity
  8
0
 62
7
100
AcDbPolyline
 90
2
 70
0
 10
16.659400
 20
72.973900
 30
0.0
 10
2.659400
 20
72.973900
 30
0.0
  0
LWPOLYLINE
  5
19d
100
AcDbEntity
  8
0
 62
7
100
AcDbPolyline
 90
2
 70
0
 10
16.659400
 20
58.973900
 30
0.0
 10
16.659400
 20
72.973900
 30
0.0
  0
LWPOLYLINE
  5
19e
100
AcDbEntity
  8
0
 62
7
100
AcDbPolyline
 90
3
 70
0
 10
154.109800
 20
50.973900
 30
0.0
 10
154.109800
 20
36.973900
 30
0.0
 10
168.109800
 20
36.973900
 30
0.0
  0
LWPOLYLINE
  5
19f
100
AcDbEntity
  8
0
 62
7
100
AcDbPolyline
 90
2
 70
0
 10
168.109800
 20
50.973900
 30
0.0
 10
154.109800
 20
50.973900
 30
0.0
  0
LWPOLYLINE
  5
1a0
100
AcDbEntity
  8
0
 62
7
100
AcDbPolyline
 90
2
 70
0
 10
168.109800
 20
36.973900
 30
0.0
 10
168.109800
 20
50.973900
 30
0.0
  0
LWPOLYLINE
  5
1a1
100
AcDbEntity
  8
0
 62
7
100
AcDbPolyline
 90
3
 70
0
 10
192.109800
 20
74.473900
 30
0.0
 10
192.109800
 20
60.473900
 30
0.0
 10
206.109800
 20
60.473900
 30
0.0
  0
LWPOLYLINE
  5
1a2
100
AcDbEntity
  8
0
 62
7
100
AcDbPolyline
 90
2
 70
0
 10
206.109800
 20
74.473900
 30
0.0
 10
192.109800
 20
74.473900
 30
0.0
  0
LWPOLYLINE
  5
1a3
100
AcDbEntity
  8
0
 62
7
100
AcDbPolyline
 90
2
 70
0
 10
206.109800
 20
60.473900
 30
0.0
 10
206.109800
 20
74.473900
 30
0.0
  0
LWPOLYLINE
  5
1a4
100
AcDbEntity
  8
0
 62
7
100
AcDbPolyline
 90
3
 70
0
 10
230.109800
 20
56.973900
 30
0.0
 10
230.109800
 20
42.973900
 30
0.0
 10
244.109800
 20
42.973900
 30
0.0
  0
LWPOLYLINE
  5
1a5
100
AcDbEntity
  8
0
 62
7
100
AcDbPolyline
 90
2
 70
0
 10
244.109800
 20
56.973900
 30
0.0
 10
230.109800
 20
56.973900
 30
0.0
  0
LWPOLYLINE
  5
1a6
100
AcDbEntity
  8
0
 62
7
100
AcDbPolyline
 90
2
 70
0
 10
244.109800
 20
42.973900
 30
0.0
 10
244.109800
 20
56.973900
 30
0.0
  0
LWPOLYLINE
  5
1a7
100
AcDbEntity
  8
0
 62
7
100
AcDbPolyline
 90
3
 70
0
 10
173.109800
 20
26.473900
 30
0.0
 10
173.109800
 20
12.473900
 30
0.0
 10
187.109800
 20
12.473900
 30
0.0
  0
LWPOLYLINE
  5
1a8
100
AcDbEntity
  8
0
 62
7
100
AcDbPolyline
 90
2
 70
0
 10
187.109800
 20
26.473900
 30
0.0
 10
173.109800
 20
26.473900
 30
0.0
  0
LWPOLYLINE
  5
1a9
100
AcDbEntity
  8
0
 62
7
100
AcDbPolyline
 90
2
 70
0
 10
187.109800
 20
12.473900
 30
0.0
 10
187.109800
 20
26.473900
 30
0.0
  0
LWPOLYLINE
  5
1aa
100
AcDbEntity
  8
0
 62
7
100
AcDbPolyline
 90
3
 70
0
 10
173.109800
 20
69.473900
 30
0.0
 10
173.109800
 20
55.473900
 30
0.0
 10
187.109800
 20
55.473900
 30
0.0
  0
LWPOLYLINE
  5
1ab
100
AcDbEntity
  8
0
 62
7
100
AcDbPolyline
 90
2
 70
0
 10
187.109800
 20
69.473900
 30
0.0
 10
173.109800
 20
69.473900
 30
0.0
  0
LWPOLYLINE
  5
1ac
100
AcDbEntity
  8
0
 62
7
100
AcDbPolyline
 90
2
 70
0
 10
187.109800
 20
55.473900
 30
0.0
 10
187.109800
 20
69.473900
 30
0.0
  0
LWPOLYLINE
  5
1ad
100
AcDbEntity
  8
0
 62
7
100
AcDbPolyline
 90
3
 70
0
 10
173.109800
 20
53.473900
 30
0.0
 10
173.109800
 20
39.473900
 30
0.0
 10
187.109800
 20
39.473900
 30
0.0
  0
LWPOLYLINE
  5
1ae
100
AcDbEntity
  8
0
 62
7
100
AcDbPolyline
 90
2
 70
0
 10
187.109800
 20
53.473900
 30
0.0
 10
173.109800
 20
53.473900
 30
0.0
  0
LWPOLYLINE
  5
1af
100
AcDbEntity
  8
0
 62
7
100
AcDbPolyline
 90
2
 70
0
 10
187.109800
 20
39.473900
 30
0.0
 10
187.109800
 20
53.473900
 30
0.0
  0
LWPOLYLINE
  5
1b0
100
AcDbEntity
  8
0
 62
7
100
AcDbPolyline
 90
3
 70
0
 10
154.109800
 20
66.973900
 30
0.0
 10
154.109800
 20
52.973900
 30
0.0
 10
168.109800
 20
52.973900
 30
0.0
  0
LWPOLYLINE
  5
1b1
100
AcDbEntity
  8
0
 62
7
100
AcDbPolyline
 90
2
 70
0
 10
168.109800
 20
66.973900
 30
0.0
 10
154.109800
 20
66.973900
 30
0.0
  0
LWPOLYLINE
  5
1b2
100
AcDbEntity
  8
0
 62
7
100
AcDbPolyline
 90
2
 70
0
 10
168.109800
 20
52.973900
 30
0.0
 10
168.109800
 20
66.973900
 30
0.0
  0
LWPOLYLINE
  5
1b3
100
AcDbEntity
  8
0
 62
7
100
AcDbPolyline
 90
3
 70
0
 10
154.109800
 20
82.973900
 30
0.0
 10
154.109800
 20
68.973900
 30
0.0
 10
168.109800
 20
68.973900
 30
0.0
  0
LWPOLYLINE
  5
1b4
100
AcDbEntity
  8
0
 62
7
100
AcDbPolyline
 90
2
 70
0
 10
168.109800
 20
82.973900
 30
0.0
 10
154.109800
 20
82.973900
 30
0.0
  0
LWPOLYLINE
  5
1b5
100
AcDbEntity
  8
0
 62
7
100
AcDbPolyline
 90
2
 70
0
 10
168.109800
 20
68.973900
 30
0.0
 10
168.109800
 20
82.973900
 30
0.0
  0
LWPOLYLINE
  5
1b6
100
AcDbEntity
  8
0
 62
7
100
AcDbPolyline
 90
3
 70
0
 10
173.109800
 20
85.473900
 30
0.0
 10
173.109800
 20
71.473900
 30
0.0
 10
187.109800
 20
71.473900
 30
0.0
  0
LWPOLYLINE
  5
1b7
100
AcDbEntity
  8
0
 62
7
100
AcDbPolyline
 90
2
 70
0
 10
187.109800
 20
85.473900
 30
0.0
 10
173.109800
 20
85.473900
 30
0.0
  0
LWPOLYLINE
  5
1b8
100
AcDbEntity
  8
0
 62
7
100
AcDbPolyline
 90
2
 70
0
 10
187.109800
 20
71.473900
 30
0.0
 10
187.109800
 20
85.473900
 30
0.0
  0
LWPOLYLINE
  5
1b9
100
AcDbEntity
  8
0
 62
7
100
AcDbPolyline
 90
3
 70
0
 10
230.109800
 20
40.973900
 30
0.0
 10
230.109800
 20
26.973900
 30
0.0
 10
244.109800
 20
26.973900
 30
0.0
  0
LWPOLYLINE
  5
1ba
100
AcDbEntity
  8
0
 62
7
100
AcDbPolyline
 90
2
 70
0
 10
244.109800
 20
40.973900
 30
0.0
 10
230.109800
 20
40.973900
 30
0.0
  0
LWPOLYLINE
  5
1bb
100
AcDbEntity
  8
0
 62
7
100
AcDbPolyline
 90
2
 70
0
 10
244.109800
 20
26.973900
 30
0.0
 10
244.109800
 20
40.973900
 30
0.0
  0
LWPOLYLINE
  5
1bc
100
AcDbEntity
  8
0
 62
7
100
AcDbPolyline
 90
3
 70
0
 10
211.109800
 20
85.473900
 30
0.0
 10
211.109800
 20
71.473900
 30
0.0
 10
225.109800
 20
71.473900
 30
0.0
  0
LWPOLYLINE
  5
1bd
100
AcDbEntity
  8
0
 62
7
100
AcDbPolyline
 90
2
 70
0
 10
225.109800
 20
85.473900
 30
0.0
 10
211.109800
 20
85.473900
 30
0.0
  0
LWPOLYLINE
  5
1be
100
AcDbEntity
  8
0
 62
7
100
AcDbPolyline
 90
2
 70
0
 10
225.109800
 20
71.473900
 30
0.0
 10
225.109800
 20
85.473900
 30
0.0
  0
LWPOLYLINE
  5
1bf
100
AcDbEntity
  8
0
 62
7
100
AcDbPolyline
 90
3
 70
0
 10
230.109800
 20
72.973900
 30
0.0
 10
230.109800
 20
58.973900
 30
0.0
 10
244.109800
 20
58.973900
 30
0.0
  0
LWPOLYLINE
  5
1c0
100
AcDbEntity
  8
0
 62
7
100
AcDbPolyline
 90
2
 70
0
 10
244.109800
 20
72.973900
 30
0.0
 10
230.109800
 20
72.973900
 30
0.0
  0
LWPOLYLINE
  5
1c1
100
AcDbEntity
  8
0
 62
7
100
AcDbPolyline
 90
2
 70
0
 10
244.109800
 20
58.973900
 30
0.0
 10
244.109800
 20
72.973900
 30
0.0
  0
SPLINE
  5
1c2
100
AcDbEntity
  8
0
 62
7
100
AcDbSpline
 70
8
 71
3
 72
8
 73
4
 74
0
 40
0
 40
0
 40
0
 40
0
 40
1
 40
1
 40
1
 40
1
 10
56.433100
 20
92.179600
 30
0.0
 10
56.899100
 20
91.708900
 30
0.0
 10
57.157500
 20
91.071300
 30
0.0
 10
57.150800
 20
90.409000
 30
0.0
  0
LWPOLYLINE
  5
1c3
100
AcDbEntity
  8
0
 62
7
100
AcDbPolyline
 90
4
 70
1
 10
98.491300
 20
62.369200
 30
0.0
 10
119.031300
 20
62.369200
 30
0.0
 10
119.031300
 20
30.599200
 30
0.0
 10
98.491300
 20
30.599200
 30
0.0
  0
SPLINE
  5
1c4
100
AcDbEntity
  8
0
 62
7
100
AcDbSpline
 70
8
 71
3
 72
8
 73
4
 74
0
 40
0
 40
0
 40
0
 40
0
 40
1
 40
1
 40
1
 40
1
 10
188.057900
 20
9.856900
 30
0.0
 10
189.249000
 20
9.857000
 30
0.0
 10
190.214600
 20
10.822600
 30
0.0
 10
190.214600
 20
12.013700
 30
0.0
  0
SPLINE
  5
1c5
100
AcDbEntity
  8
0
 62
7
100
AcDbSpline
 70
8
 71
3
 72
8
 73
4
 74
0
 40
0
 40
0
 40
0
 40
0
 40
1
 40
1
 40
1
 40
1
 10
38.808700
 20
92.237900
 30
0.0
 10
39.237200
 20
92.671000
 30
0.0
 10
39.821200
 20
92.914600
 30
0.0
 10
40.430500
 20
92.914600
 30
0.0
  0
SPLINE
  5
1c6
100
AcDbEntity
  8
0
 62
7
100
AcDbSpline
 70
8
 71
3
 72
8
 73
4
 74
0
 40
0
 40
0
 40
0
 40
0
 40
1
 40
1
 40
1
 40
1
 10
114.655700
 20
1.808100
 30
0.0
 10
114.248200
 20
0.688900
 30
0.0
 10
113.010600
 20
0.111800
 30
0.0
 10
111.891300
 20
0.519200
 30
0.0
  0
SPLINE
  5
1c7
100
AcDbEntity
  8
0
 62
7
100
AcDbSpline
 70
8
 71
3
 72
8
 73
4
 74
0
 40
0
 40
0
 40
0
 40
0
 40
1
 40
1
 40
1
 40
1
 10
244.477900
 20
24.529200
 30
0.0
 10
245.669000
 20
24.529300
 30
0.0
 10
246.634600
 20
25.494900
 30
0.0
 10
246.634600
 20
26.686000
 30
0.0
  0
LWPOLYLINE
  5
1c8
100
AcDbEntity
  8
0
 62
7
100
AcDbPolyline
 90
2
 70
0
 10
57.150800
 20
90.409000
 30
0.0
 10
57.125500
 20
87.913300
 30
0.0
  0
LWPOLYLINE
  5
1c9
100
AcDbEntity
  8
0
 62
7
100
AcDbPolyline
 90
2
 70
0
 10
95.648000
 20
6.430500
 30
0.0
 10
76.176000
 20
9.864400
 30
0.0
  0
SPLINE
  5
1ca
100
AcDbEntity
  8
0
 62
7
100
AcDbSpline
 70
8
 71
3
 72
8
 73
4
 74
0
 40
0
 40
0
 40
0
 40
0
 40
1
 40
1
 40
1
 40
1
 10
38.148700
 20
90.609200
 30
0.0
 10
38.142400
 20
91.218400
 30
0.0
 10
38.380100
 20
91.804900
 30
0.0
 10
38.808700
 20
92.237900
 30
0.0
  0
SPLINE
  5
1cb
100
AcDbEntity
  8
0
 62
7
100
AcDbSpline
 70
8
 71
3
 72
8
 73
4
 74
0
 40
0
 40
0
 40
0
 40
0
 40
1
 40
1
 40
1
 40
1
 10
118.384600
 20
85.417500
 30
0.0
 10
119.575700
 20
85.417400
 30
0.0
 10
120.541300
 20
84.451800
 30
0.0
 10
120.541300
 20
83.260700
 30
0.0
  0
LWPOLYLINE
  5
1cc
100
AcDbEntity
  8
0
 62
7
100
AcDbPolyline
 90
2
 70
0
 10
188.057900
 20
9.856900
 30
0.0
 10
170.593200
 20
9.864400
 30
0.0
  0
SPLINE
  5
1cd
100
AcDbEntity
  8
0
 62
7
100
AcDbSpline
 70
8
 71
3
 72
8
 73
4
 74
0
 40
0
 40
0
 40
0
 40
0
 40
1
 40
1
 40
1
 40
1
 10
73.675100
 20
87.913900
 30
0.0
 10
74.333900
 20
87.914000
 30
0.0
 10
74.965000
 20
87.648800
 30
0.0
 10
75.426100
 20
87.178400
 30
0.0
  0
LWPOLYLINE
  5
1ce
100
AcDbEntity
  8
0
 62
7
100
AcDbPolyline
 90
2
 70
0
 10
225.157900
 20
36.979200
 30
0.0
 10
192.371300
 20
36.979200
 30
0.0
  0
SPLINE
  5
1cf
100
AcDbEntity
  8
0
 62
7
100
AcDbSpline
 70
8
 71
3
 72
8
 73
4
 74
0
 40
0
 40
0
 40
0
 40
0
 40
1
 40
1
 40
1
 40
1
 10
207.960600
 20
92.237900
 30
0.0
 10
207.532000
 20
92.671000
 30
0.0
 10
206.948000
 20
92.914600
 30
0.0
 10
206.338700
 20
92.914600
 30
0.0
  0
LWPOLYLINE
  5
1d0
100
AcDbEntity
  8
0
 62
7
100
AcDbPolyline
 90
2
 70
0
 10
57.125500
 20
87.913300
 30
0.0
 10
73.675100
 20
87.913900
 30
0.0
  0
SPLINE
  5
1d1
100
AcDbEntity
  8
0
 62
7
100
AcDbSpline
 70
8
 71
3
 72
8
 73
4
 74
0
 40
0
 40
0
 40
0
 40
0
 40
1
 40
1
 40
1
 40
1
 10
2.291300
 20
24.529200
 30
0.0
 10
1.100200
 20
24.529300
 30
0.0
 10
0.134700
 20
25.494900
 30
0.0
 10
0.134600
 20
26.686000
 30
0.0
  0
LWPOLYLINE
  5
1d2
100
AcDbEntity
  8
0
 62
7
100
AcDbPolyline
 90
2
 70
0
 10
128.384600
 20
85.417500
 30
0.0
 10
170.642000
 20
85.415300
 30
0.0
  0
SPLINE
  5
1d3
100
AcDbEntity
  8
0
 62
7
100
AcDbSpline
 70
8
 71
3
 72
8
 73
4
 74
0
 40
0
 40
0
 40
0
 40
0
 40
1
 40
1
 40
1
 40
1
 10
58.711300
 20
9.856900
 30
0.0
 10
57.520200
 20
9.857000
 30
0.0
 10
56.554700
 20
10.822600
 30
0.0
 10
56.554600
 20
12.013700
 30
0.0
  0
LWPOLYLINE
  5
1d4
100
AcDbEntity
  8
0
 62
7
100
AcDbPolyline
 90
2
 70
0
 10
229.477900
 20
24.529200
 30
0.0
 10
244.477900
 20
24.529200
 30
0.0
  0
LWPOLYLINE
  5
1d5
100
AcDbEntity
  8
0
 62
7
100
AcDbPolyline
 90
2
 70
0
 10
0.134600
 20
26.686000
 30
0.0
 10
0.125000
 20
73.257700
 30
0.0
  0
LWPOLYLINE
  5
1d6
100
AcDbEntity
  8
0
 62
7
100
AcDbPolyline
 90
2
 70
0
 10
227.632700
 20
85.656100
 30
0.0
 10
227.592700
 20
75.415100
 30
0.0
  0
LWPOLYLINE
  5
1d7
100
AcDbEntity
  8
0
 62
7
100
AcDbPolyline
 90
2
 70
0
 10
170.593200
 20
9.864400
 30
0.0
 10
151.121200
 20
6.430500
 30
0.0
  0
LWPOLYLINE
  5
1d8
100
AcDbEntity
  8
0
 62
7
100
AcDbPolyline
 90
4
 70
1
 10
127.737900
 20
62.369200
 30
0.0
 10
148.277900
 20
62.369200
 30
0.0
 10
148.277900
 20
30.599200
 30
0.0
 10
127.737900
 20
30.599200
 30
0.0
  0
LWPOLYLINE
  5
1d9
100
AcDbEntity
  8
0
 62
7
100
AcDbPolyline
 90
2
 70
0
 10
111.891300
 20
0.519200
 30
0.0
 10
95.648000
 20
6.430500
 30
0.0
  0
LWPOLYLINE
  5
1da
100
AcDbEntity
  8
0
 62
7
100
AcDbPolyline
 90
2
 70
0
 10
19.448100
 20
26.685900
 30
0.0
 10
19.454500
 20
34.822500
 30
0.0
  0
SPLINE
  5
1db
100
AcDbEntity
  8
0
 62
7
100
AcDbSpline
 70
8
 71
3
 72
8
 73
4
 74
0
 40
0
 40
0
 40
0
 40
0
 40
1
 40
1
 40
1
 40
1
 10
75.426100
 20
87.178400
 30
0.0
 10
75.887300
 20
86.707900
 30
0.0
 10
76.139600
 20
86.071600
 30
0.0
 10
76.126400
 20
85.412900
 30
0.0
  0
SPLINE
  5
1dc
100
AcDbEntity
  8
0
 62
7
100
AcDbSpline
 70
8
 71
3
 72
8
 73
4
 74
0
 40
0
 40
0
 40
0
 40
0
 40
1
 40
1
 40
1
 40
1
 10
208.620500
 20
90.609200
 30
0.0
 10
208.626800
 20
91.218400
 30
0.0
 10
208.389200
 20
91.804900
 30
0.0
 10
207.960600
 20
92.237900
 30
0.0
  0
SPLINE
  5
1dd
100
AcDbEntity
  8
0
 62
7
100
AcDbSpline
 70
8
 71
3
 72
8
 73
4
 74
0
 40
0
 40
0
 40
0
 40
0
 40
1
 40
1
 40
1
 40
1
 10
19.136500
 20
85.656100
 30
0.0
 10
19.134100
 20
86.254000
 30
0.0
 10
19.370000
 20
86.828200
 30
0.0
 10
19.792000
 20
87.251900
 30
0.0
  0
SPLINE
  5
1de
100
AcDbEntity
  8
0
 62
7
100
AcDbSpline
 70
8
 71
3
 72
8
 73
4
 74
0
 40
0
 40
0
 40
0
 40
0
 40
1
 40
1
 40
1
 40
1
 10
120.541300
 20
19.359200
 30
0.0
 10
120.451300
 20
17.989200
 30
0.0
 10
120.193300
 20
17.022800
 30
0.0
 10
119.786000
 20
15.903500
 30
0.0
  0
LWPOLYLINE
  5
1df
100
AcDbEntity
  8
0
 62
7
100
AcDbPolyline
 90
2
 70
0
 10
21.385200
 20
87.913700
 30
0.0
 10
38.176500
 20
87.913700
 30
0.0
  0
LWPOLYLINE
  5
1e0
100
AcDbEntity
  8
0
 62
7
100
AcDbPolyline
 90
2
 70
0
 10
208.620500
 20
90.609200
 30
0.0
 10
208.592800
 20
87.913700
 30
0.0
  0
SPLINE
  5
1e1
100
AcDbEntity
  8
0
 62
7
100
AcDbSpline
 70
8
 71
3
 72
8
 73
4
 74
0
 40
0
 40
0
 40
0
 40
0
 40
1
 40
1
 40
1
 40
1
 10
171.343100
 20
87.178400
 30
0.0
 10
170.881900
 20
86.707900
 30
0.0
 10
170.629600
 20
86.071600
 30
0.0
 10
170.642800
 20
85.412900
 30
0.0
  0
SPLINE
  5
1e2
100
AcDbEntity
  8
0
 62
7
100
AcDbSpline
 70
8
 71
3
 72
8
 73
4
 74
0
 40
0
 40
0
 40
0
 40
0
 40
1
 40
1
 40
1
 40
1
 10
227.314700
 20
34.822500
 30
0.0
 10
227.314600
 20
36.013600
 30
0.0
 10
226.349000
 20
36.979100
 30
0.0
 10
225.157900
 20
36.979200
 30
0.0
  0
SPLINE
  5
1e3
100
AcDbEntity
  8
0
 62
7
100
AcDbSpline
 70
8
 71
3
 72
8
 73
4
 74
0
 40
0
 40
0
 40
0
 40
0
 40
1
 40
1
 40
1
 40
1
 10
19.448100
 20
26.685900
 30
0.0
 10
19.448000
 20
25.494800
 30
0.0
 10
18.482400
 20
24.529200
 30
0.0
 10
17.291300
 20
24.529200
 30
0.0
  0
LWPOLYLINE
  5
1e4
100
AcDbEntity
  8
0
 62
7
100
AcDbPolyline
 90
2
 70
0
 10
132.113500
 20
1.808100
 30
0.0
 10
126.983200
 20
15.903500
 30
0.0
  0
LWPOLYLINE
  5
1e5
100
AcDbEntity
  8
0
 62
7
100
AcDbPolyline
 90
2
 70
0
 10
19.176500
 20
75.415100
 30
0.0
 10
19.136500
 20
85.656100
 30
0.0
  0
LWPOLYLINE
  5
1e6
100
AcDbEntity
  8
0
 62
7
100
AcDbPolyline
 90
2
 70
0
 10
76.127200
 20
85.415300
 30
0.0
 10
118.384600
 20
85.417500
 30
0.0
  0
SPLINE
  5
1e7
100
AcDbEntity
  8
0
 62
7
100
AcDbSpline
 70
8
 71
3
 72
8
 73
4
 74
0
 40
0
 40
0
 40
0
 40
0
 40
1
 40
1
 40
1
 40
1
 10
54.669900
 20
92.915200
 30
0.0
 10
55.332200
 20
92.915200
 30
0.0
 10
55.967100
 20
92.650400
 30
0.0
 10
56.433100
 20
92.179600
 30
0.0
  0
LWPOLYLINE
  5
1e8
100
AcDbEntity
  8
0
 62
7
100
AcDbPolyline
 90
2
 70
0
 10
246.644200
 20
73.257700
 30
0.0
 10
246.634600
 20
26.686000
 30
0.0
  0
SPLINE
  5
1e9
100
AcDbEntity
  8
0
 62
7
100
AcDbSpline
 70
8
 71
3
 72
8
 73
4
 74
0
 40
0
 40
0
 40
0
 40
0
 40
1
 40
1
 40
1
 40
1
 10
190.336100
 20
92.179600
 30
0.0
 10
189.870100
 20
91.708900
 30
0.0
 10
189.611700
 20
91.071300
 30
0.0
 10
189.618400
 20
90.409000
 30
0.0
  0
SPLINE
  5
1ea
100
AcDbEntity
  8
0
 62
7
100
AcDbSpline
 70
8
 71
3
 72
8
 73
4
 74
0
 40
0
 40
0
 40
0
 40
0
 40
1
 40
1
 40
1
 40
1
 10
126.227900
 20
19.359200
 30
0.0
 10
126.317900
 20
17.989200
 30
0.0
 10
126.575900
 20
17.022800
 30
0.0
 10
126.983200
 20
15.903500
 30
0.0
  0
LWPOLYLINE
  5
1eb
100
AcDbEntity
  8
0
 62
7
100
AcDbPolyline
 90
2
 70
0
 10
227.314700
 20
34.822500
 30
0.0
 10
227.321100
 20
26.685900
 30
0.0
  0
LWPOLYLINE
  5
1ec
100
AcDbEntity
  8
0
 62
7
100
AcDbPolyline
 90
2
 70
0
 10
126.229900
 20
83.211530
 30
0.0
 10
126.227900
 20
19.359200
 30
0.0
  0
LWPOLYLINE
  5
1ed
100
AcDbEntity
  8
0
 62
7
100
AcDbPolyline
 90
2
 70
0
 10
173.094100
 20
87.913900
 30
0.0
 10
189.643700
 20
87.913300
 30
0.0
  0
SPLINE
  5
1ee
100
AcDbEntity
  8
0
 62
7
100
AcDbSpline
 70
8
 71
3
 72
8
 73
4
 74
0
 40
0
 40
0
 40
0
 40
0
 40
1
 40
1
 40
1
 40
1
 10
227.321100
 20
26.685900
 30
0.0
 10
227.321200
 20
25.494800
 30
0.0
 10
228.286800
 20
24.529200
 30
0.0
 10
229.477900
 20
24.529200
 30
0.0
  0
SPLINE
  5
1ef
100
AcDbEntity
  8
0
 62
7
100
AcDbSpline
 70
8
 71
3
 72
8
 73
4
 74
0
 40
0
 40
0
 40
0
 40
0
 40
1
 40
1
 40
1
 40
1
 10
19.454500
 20
34.822500
 30
0.0
 10
19.454600
 20
36.013600
 30
0.0
 10
20.420200
 20
36.979100
 30
0.0
 10
21.611300
 20
36.979200
 30
0.0
  0
LWPOLYLINE
  5
1f0
100
AcDbEntity
  8
0
 62
7
100
AcDbPolyline
 90
2
 70
0
 10
2.281800
 20
75.414500
 30
0.0
 10
19.176500
 20
75.415100
 30
0.0
  0
LWPOLYLINE
  5
1f1
100
AcDbEntity
  8
0
 62
7
100
AcDbPolyline
 90
2
 70
0
 10
40.430500
 20
92.914600
 30
0.0
 10
54.669900
 20
92.915200
 30
0.0
  0
SPLINE
  5
1f2
100
AcDbEntity
  8
0
 62
7
100
AcDbSpline
 70
8
 71
3
 72
8
 73
4
 74
0
 40
0
 40
0
 40
0
 40
0
 40
1
 40
1
 40
1
 40
1
 10
173.094100
 20
87.913900
 30
0.0
 10
172.435300
 20
87.914000
 30
0.0
 10
171.804200
 20
87.648800
 30
0.0
 10
171.343100
 20
87.178400
 30
0.0
  0
LWPOLYLINE
  5
1f3
100
AcDbEntity
  8
0
 62
7
100
AcDbPolyline
 90
2
 70
0
 10
190.214600
 20
12.013700
 30
0.0
 10
190.214600
 20
34.822400
 30
0.0
  0
SPLINE
  5
1f4
100
AcDbEntity
  8
0
 62
7
100
AcDbSpline
 70
8
 71
3
 72
8
 73
4
 74
0
 40
0
 40
0
 40
0
 40
0
 40
1
 40
1
 40
1
 40
1
 10
192.099400
 20
92.915200
 30
0.0
 10
191.437000
 20
92.915200
 30
0.0
 10
190.802100
 20
92.650400
 30
0.0
 10
190.336100
 20
92.179600
 30
0.0
  0
LWPOLYLINE
  5
1f5
100
AcDbEntity
  8
0
 62
7
100
AcDbPolyline
 90
2
 70
0
 10
151.121200
 20
6.430500
 30
0.0
 10
134.877900
 20
0.519200
 30
0.0
  0
LWPOLYLINE
  5
1f6
100
AcDbEntity
  8
0
 62
7
100
AcDbPolyline
 90
2
 70
0
 10
2.291300
 20
24.529200
 30
0.0
 10
17.291300
 20
24.529200
 30
0.0
  0
LWPOLYLINE
  5
1f7
100
AcDbEntity
  8
0
 62
7
100
AcDbPolyline
 90
2
 70
0
 10
38.176500
 20
87.913700
 30
0.0
 10
38.148700
 20
90.609200
 30
0.0
  0
LWPOLYLINE
  5
1f8
100
AcDbEntity
  8
0
 62
7
100
AcDbPolyline
 90
2
 70
0
 10
119.786000
 20
15.903500
 30
0.0
 10
114.655700
 20
1.808100
 30
0.0
  0
LWPOLYLINE
  5
1f9
100
AcDbEntity
  8
0
 62
7
100
AcDbPolyline
 90
2
 70
0
 10
54.397900
 20
36.979200
 30
0.0
 10
21.611300
 20
36.979200
 30
0.0
  0
LWPOLYLINE
  5
1fa
100
AcDbEntity
  8
0
 62
7
100
AcDbPolyline
 90
2
 70
0
 10
208.592800
 20
87.913700
 30
0.0
 10
225.384000
 20
87.913700
 30
0.0
  0
LWPOLYLINE
  5
1fb
100
AcDbEntity
  8
0
 62
7
100
AcDbPolyline
 90
2
 70
0
 10
189.643700
 20
87.913300
 30
0.0
 10
189.618400
 20
90.409000
 30
0.0
  0
LWPOLYLINE
  5
1fc
100
AcDbEntity
  8
0
 62
7
100
AcDbPolyline
 90
2
 70
0
 10
192.099400
 20
92.915200
 30
0.0
 10
206.338700
 20
92.914600
 30
0.0
  0
SPLINE
  5
1fd
100
AcDbEntity
  8
0
 62
7
100
AcDbSpline
 70
8
 71
3
 72
8
 73
4
 74
0
 40
0
 40
0
 40
0
 40
0
 40
1
 40
1
 40
1
 40
1
 10
132.113500
 20
1.808100
 30
0.0
 10
132.521000
 20
0.688900
 30
0.0
 10
133.758600
 20
0.111800
 30
0.0
 10
134.877900
 20
0.519200
 30
0.0
  0
SPLINE
  5
1fe
100
AcDbEntity
  8
0
 62
7
100
AcDbSpline
 70
8
 71
3
 72
8
 73
4
 74
0
 40
0
 40
0
 40
0
 40
0
 40
1
 40
1
 40
1
 40
1
 10
226.977200
 20
87.251900
 30
0.0
 10
226.555200
 20
87.675500
 30
0.0
 10
225.981900
 20
87.913700
 30
0.0
 10
225.384000
 20
87.913700
 30
0.0
  0
LWPOLYLINE
  5
1ff
100
AcDbEntity
  8
0
 62
7
100
AcDbPolyline
 90
2
 70
0
 10
227.592700
 20
75.415100
 30
0.0
 10
244.487400
 20
75.414500
 30
0.0
  0
LWPOLYLINE
  5
200
100
AcDbEntity
  8
0
 62
7
100
AcDbPolyline
 90
2
 70
0
 10
120.541300
 20
19.359200
 30
0.0
 10
120.541300
 20
83.260700
 30
0.0
  0
SPLINE
  5
201
100
AcDbEntity
  8
0
 62
7
100
AcDbSpline
 70
8
 71
3
 72
8
 73
4
 74
0
 40
0
 40
0
 40
0
 40
0
 40
1
 40
1
 40
1
 40
1
 10
227.632700
 20
85.656100
 30
0.0
 10
227.635100
 20
86.254000
 30
0.0
 10
227.399200
 20
86.828200
 30
0.0
 10
226.977200
 20
87.251900
 30
0.0
  0
SPLINE
  5
202
100
AcDbEntity
  8
0
 62
7
100
AcDbSpline
 70
8
 71
3
 72
8
 73
4
 74
0
 40
0
 40
0
 40
0
 40
0
 40
1
 40
1
 40
1
 40
1
 10
0.125000
 20
73.257700
 30
0.0
 10
0.125100
 20
74.448900
 30
0.0
 10
1.090700
 20
75.414400
 30
0.0
 10
2.281800
 20
75.414500
 30
0.0
  0
SPLINE
  5
203
100
AcDbEntity
  8
0
 62
7
100
AcDbSpline
 70
8
 71
3
 72
8
 73
4
 74
0
 40
0
 40
0
 40
0
 40
0
 40
1
 40
1
 40
1
 40
1
 10
128.384600
 20
85.417500
 30
0.0
 10
127.193500
 20
85.417400
 30
0.0
 10
126.228000
 20
84.451800
 30
0.0
 10
126.227900
 20
83.260700
 30
0.0
  0
SPLINE
  5
204
100
AcDbEntity
  8
0
 62
7
100
AcDbSpline
 70
8
 71
3
 72
8
 73
4
 74
0
 40
0
 40
0
 40
0
 40
0
 40
1
 40
1
 40
1
 40
1
 10
246.644200
 20
73.257700
 30
0.0
 10
246.644100
 20
74.448900
 30
0.0
 10
245.678500
 20
75.414400
 30
0.0
 10
244.487400
 20
75.414500
 30
0.0
  0
SPLINE
  5
205
100
AcDbEntity
  8
0
 62
7
100
AcDbSpline
 70
8
 71
3
 72
8
 73
4
 74
0
 40
0
 40
0
 40
0
 40
0
 40
1
 40
1
 40
1
 40
1
 10
19.792000
 20
87.251900
 30
0.0
 10
20.214000
 20
87.675500
 30
0.0
 10
20.787300
 20
87.913700
 30
0.0
 10
21.385200
 20
87.913700
 30
0.0
  0
SPLINE
  5
206
100
AcDbEntity
  8
0
 62
7
100
AcDbSpline
 70
8
 71
3
 72
8
 73
4
 74
0
 40
0
 40
0
 40
0
 40
0
 40
1
 40
1
 40
1
 40
1
 10
192.371300
 20
36.979200
 30
0.0
 10
191.180200
 20
36.979100
 30
0.0
 10
190.214700
 20
36.013500
 30
0.0
 10
190.214600
 20
34.822400
 30
0.0
  0
LWPOLYLINE
  5
207
100
AcDbEntity
  8
0
 62
7
100
AcDbPolyline
 90
2
 70
0
 10
76.176000
 20
9.864400
 30
0.0
 10
58.711300
 20
9.856900
 30
0.0
  0
SPLINE
  5
208
100
AcDbEntity
  8
0
 62
7
100
AcDbSpline
 70
8
 71
3
 72
8
 73
4
 74
0
 40
0
 40
0
 40
0
 40
0
 40
1
 40
1
 40
1
 40
1
 10
54.397900
 20
36.979200
 30
0.0
 10
55.589000
 20
36.979100
 30
0.0
 10
56.554600
 20
36.013500
 30
0.0
 10
56.554600
 20
34.822400
 30
0.0
  0
LWPOLYLINE
  5
209
100
AcDbEntity
  8
0
 62
7
100
AcDbPolyline
 90
2
 70
0
 10
56.554600
 20
34.822400
 30
0.0
 10
56.554600
 20
12.013700
 30
0.0
  0
ENDSEC
  0
SECTION
  2
OBJECTS
  0
DICTIONARY
  5
C
330
0
100
AcDbDictionary
  3
ACAD_GROUP
350
D
  3
ACAD_MLINESTYLE
350
17
  0
DICTIONARY
  5
D
330
C
100
AcDbDictionary
  0
DICTIONARY
  5
1A
330
C
100
AcDbDictionary
  0
DICTIONARY
  5
17
330
C
100
AcDbDictionary
  3
STANDARD
350
18
  0
DICTIONARY
  5
19
330
C
100
AcDbDictionary
  0
ENDSEC
  0
EOF
