<?xml version="1.0" encoding="UTF-8" standalone="no"?>
<svg
   version="1.1"
   width="246.7610mm"
   height="93.0402mm"
   viewBox="0.0000 0.0000 246.7610 93.0402"
   id="svg1480"
   sodipodi:docname="bykeeb-case-sketch.svg"
   inkscape:version="1.1.1 (3bf5ae0d25, 2021-09-20)"
   xmlns:inkscape="http://www.inkscape.org/namespaces/inkscape"
   xmlns:sodipodi="http://sodipodi.sourceforge.net/DTD/sodipodi-0.dtd"
   xmlns="http://www.w3.org/2000/svg"
   xmlns:svg="http://www.w3.org/2000/svg"
   xmlns:rdf="http://www.w3.org/1999/02/22-rdf-syntax-ns#"
   xmlns:cc="http://creativecommons.org/ns#"
   xmlns:dc="http://purl.org/dc/elements/1.1/">
  <defs
     id="defs1484" />
  <sodipodi:namedview
     id="namedview1482"
     pagecolor="#ffffff"
     bordercolor="#666666"
     borderopacity="1.0"
     inkscape:pageshadow="2"
     inkscape:pageopacity="0.0"
     inkscape:pagecheckerboard="0"
     inkscape:document-units="mm"
     showgrid="false"
     inkscape:zoom="1.1344141"
     inkscape:cx="581.35736"
     inkscape:cy="63.468885"
     inkscape:window-width="1920"
     inkscape:window-height="1018"
     inkscape:window-x="-6"
     inkscape:window-y="-6"
     inkscape:window-maximized="1"
     inkscape:current-layer="g90" />
  <title
     id="title2">SVG Image created as bykeeb-brd.svg date 2024/06/30 15:42:09 </title>
  <desc
     id="desc4">Image generated by PCBNEW </desc>
  <g
     style="fill:#000000; fill-opacity:1.0000;stroke:#000000; stroke-opacity:1.0000; stroke-linecap:round; stroke-linejoin:round;"
     transform="translate(0 0) scale(1 1)"
     id="g6" />
  <g
     style="fill:#000000; fill-opacity:0.0;  stroke:#000000; stroke-width:0.0000; stroke-opacity:1;  stroke-linecap:round; stroke-linejoin:round;"
     id="g8" />
  <g
     style="fill:#000000; fill-opacity:0.0;  stroke:#000000; stroke-width:0.1200; stroke-opacity:1;  stroke-linecap:round; stroke-linejoin:round;"
     id="g90">
    <path
       d="M128.7379 28.5810 L146.5179 28.5810 "
       id="path10" />
    <path
       d="M146.5179 28.5810 L146.5179 7.5810 "
       id="path12" />
    <path
       d="M146.5179 7.5810 L128.7379 7.5810 "
       id="path14" />
    <path
       d="M128.7379 7.5810 L128.7379 28.5810 "
       id="path16" />
    <path
       d="M134.1201 9.8982 L132.3421 9.8982 "
       id="path26" />
    <path
       d="M132.3421 9.8982 L132.3421 7.2312 "
       id="path28" />
    <path
       d="M132.3421 7.2312 L134.1201 7.2312 "
       id="path30" />
    <path
       d="M134.1201 7.2312 L134.1201 9.8982 "
       id="path32" />
    <path
       d="M140.9781 7.2312 L142.7561 7.2312 "
       id="path34" />
    <path
       d="M142.7561 7.2312 L142.7561 9.8982 "
       id="path36" />
    <path
       d="M142.7561 9.8982 L140.9781 9.8982 "
       id="path38" />
    <path
       d="M140.9781 9.8982 L140.9781 7.2312 "
       id="path40" />
    <path
       d="M100.2513 28.5810 L118.0313 28.5810 "
       id="path50" />
    <path
       d="M118.0313 28.5810 L118.0313 7.5810 "
       id="path52" />
    <path
       d="M118.0313 7.5810 L100.2513 7.5810 "
       id="path54" />
    <path
       d="M100.2513 7.5810 L100.2513 28.5810 "
       id="path56" />
    <path
       d="M105.6335 9.8982 L103.8555 9.8982 "
       id="path66" />
    <path
       d="M103.8555 9.8982 L103.8555 7.2312 "
       id="path68" />
    <path
       d="M103.8555 7.2312 L105.6335 7.2312 "
       id="path70" />
    <path
       d="M105.6335 7.2312 L105.6335 9.8982 "
       id="path72" />
    <path
       d="M112.4915 7.2312 L114.2695 7.2312 "
       id="path74" />
    <path
       d="M114.2695 7.2312 L114.2695 9.8982 "
       id="path76" />
    <path
       d="M114.2695 9.8982 L112.4915 9.8982 "
       id="path78" />
    <path
       d="M112.4915 9.8982 L112.4915 7.2312 "
       id="path80" />
  </g>
  <g
     style="fill:#000000; fill-opacity:0.0;  stroke:#000000; stroke-width:0.1500; stroke-opacity:1;  stroke-linecap:round; stroke-linejoin:round;"
     id="g132">
    <path
       d="M194.3478 55.1313 L194.3478 55.4313 "
       id="path94" />
    <path
       d="M194.3478 55.1313 L197.3478 55.1313 "
       id="path96" />
    <path
       d="M196.0478 55.4313 L196.0478 56.9313 "
       id="path98" />
    <path
       d="M196.0478 56.9313 L197.3478 56.9313 "
       id="path100" />
    <path
       d="M197.3478 55.1313 L197.3478 55.4313 "
       id="path102" />
    <path
       d="M197.3478 56.9313 L197.3478 55.4313 "
       id="path104" />
    <path
       d="M49.4213 55.1310 L49.4213 55.4310 "
       id="path114" />
    <path
       d="M49.4213 55.1310 L52.4213 55.1310 "
       id="path116" />
    <path
       d="M51.1213 55.4310 L51.1213 56.9310 "
       id="path118" />
    <path
       d="M51.1213 56.9310 L52.4213 56.9310 "
       id="path120" />
    <path
       d="M52.4213 55.1310 L52.4213 55.4310 "
       id="path122" />
    <path
       d="M52.4213 56.9310 L52.4213 55.4310 "
       id="path124" />
  </g>
  <g
     style="fill:#000000; fill-opacity:0.0;  stroke:#000000; stroke-width:0.1200; stroke-opacity:1;  stroke-linecap:round; stroke-linejoin:round;"
     id="g330">
    <circle
       cx="111.4113"
       cy="18.0490"
       r="1.7500"
       id="circle134" />
    <circle
       cx="139.8979"
       cy="18.0490"
       r="1.7500"
       id="circle136" />
    <g
       id="g138" />
    <g
       id="g140" />
    <g
       id="g142" />
    <g
       id="g144" />
    <g
       id="g146" />
    <g
       id="g148" />
    <g
       id="g150" />
    <g
       id="g152" />
    <g
       id="g154" />
    <g
       id="g156" />
    <g
       id="g158" />
    <g
       id="g160" />
    <g
       id="g162" />
    <g
       id="g164" />
    <g
       id="g166" />
    <g
       id="g168" />
    <g
       id="g170" />
    <g
       id="g172" />
    <g
       id="g174" />
    <g
       id="g176" />
    <g
       id="g178" />
    <g
       id="g180" />
    <g
       id="g182" />
    <g
       id="g184" />
    <g
       id="g186" />
    <g
       id="g188" />
    <g
       id="g190" />
    <g
       id="g192" />
    <g
       id="g194" />
    <g
       id="g196" />
    <g
       id="g198" />
    <g
       id="g200" />
    <g
       id="g202" />
    <g
       id="g204" />
    <g
       id="g206" />
    <g
       id="g208" />
    <g
       id="g210" />
    <g
       id="g212" />
    <g
       id="g214" />
    <g
       id="g216" />
    <g
       id="g218" />
    <g
       id="g220" />
    <g
       id="g222" />
    <g
       id="g224" />
    <g
       id="g226" />
    <g
       id="g228" />
    <g
       id="g230" />
    <g
       id="g232" />
    <g
       id="g234" />
    <g
       id="g236" />
    <g
       id="g238" />
    <g
       id="g240" />
    <g
       id="g242" />
    <g
       id="g244" />
    <g
       id="g246" />
    <g
       id="g248" />
    <g
       id="g250" />
    <g
       id="g252" />
    <g
       id="g254" />
    <g
       id="g256" />
    <g
       id="g258" />
    <g
       id="g260" />
    <g
       id="g262" />
    <g
       id="g264" />
    <g
       id="g266" />
    <g
       id="g268" />
    <g
       id="g270" />
    <g
       id="g272" />
    <g
       id="g274" />
    <g
       id="g276" />
    <g
       id="g278" />
    <g
       id="g280" />
    <g
       id="g282" />
    <g
       id="g284" />
    <g
       id="g286" />
    <g
       id="g288" />
    <g
       id="g290" />
    <g
       id="g292" />
    <g
       id="g294" />
    <g
       id="g296" />
    <g
       id="g298" />
    <g
       id="g300" />
    <g
       id="g302" />
    <g
       id="g304" />
    <g
       id="g306" />
    <g
       id="g308" />
    <g
       id="g310" />
    <g
       id="g312" />
    <g
       id="g314" />
    <g
       id="g316" />
    <g
       id="g318" />
    <g
       id="g320" />
    <g
       id="g322" />
    <g
       id="g324" />
    <g
       id="g326" />
    <g
       id="g328" />
  </g>
  <g
     style="fill:#000000; fill-opacity:0.0;  stroke:#000000; stroke-width:0.1200; stroke-opacity:1;  stroke-linecap:round; stroke-linejoin:round;"
     id="g332" />
  <g
     style="fill:#000000; fill-opacity:0.0;  stroke:#000000; stroke-width:0.1500; stroke-opacity:1;  stroke-linecap:round; stroke-linejoin:round;"
     id="g542">
    <circle
       cx="115.5213"
       cy="65.4310"
       r="1.9000"
       id="circle334" />
    <circle
       cx="131.2479"
       cy="65.4310"
       r="1.9000"
       id="circle336" />
    <circle
       cx="97.2313"
       cy="10.1710"
       r="1.9000"
       id="circle338" />
    <circle
       cx="170.6098"
       cy="25.1663"
       r="3.2000"
       id="circle340" />
    <circle
       cx="76.1594"
       cy="25.1663"
       r="3.2000"
       id="circle342" />
    <circle
       cx="59.2413"
       cy="60.1310"
       r="1.9000"
       id="circle344" />
    <circle
       cx="149.5379"
       cy="10.1710"
       r="1.9000"
       id="circle346" />
    <circle
       cx="187.5313"
       cy="60.1210"
       r="1.9000"
       id="circle348" />
    <g
       id="g350" />
    <g
       id="g352" />
    <g
       id="g354" />
    <g
       id="g356" />
    <g
       id="g358" />
    <g
       id="g360" />
    <g
       id="g362" />
    <g
       id="g364" />
    <g
       id="g366" />
    <g
       id="g368" />
    <g
       id="g370" />
    <g
       id="g372" />
    <g
       id="g374" />
    <g
       id="g376" />
    <g
       id="g378" />
    <g
       id="g380" />
    <g
       id="g382" />
    <g
       id="g384" />
    <g
       id="g386" />
    <g
       id="g388" />
    <g
       id="g390" />
    <g
       id="g392" />
    <g
       id="g394" />
    <g
       id="g396" />
    <g
       id="g398" />
    <g
       id="g400" />
    <g
       id="g402" />
    <g
       id="g404" />
    <g
       id="g406" />
    <g
       id="g408" />
    <g
       id="g410" />
    <g
       id="g412" />
    <g
       id="g414" />
    <g
       id="g416" />
    <g
       id="g418" />
    <g
       id="g420" />
    <g
       id="g422" />
    <g
       id="g424" />
    <g
       id="g426" />
    <g
       id="g428" />
    <g
       id="g430" />
    <g
       id="g432" />
    <g
       id="g434" />
    <g
       id="g436" />
    <g
       id="g438" />
    <g
       id="g440" />
    <g
       id="g442" />
    <g
       id="g444" />
    <g
       id="g446" />
    <g
       id="g448" />
    <g
       id="g450" />
    <g
       id="g452" />
    <g
       id="g454" />
    <g
       id="g456" />
    <g
       id="g458" />
    <g
       id="g460" />
    <g
       id="g462" />
    <g
       id="g464" />
    <g
       id="g466" />
    <g
       id="g468" />
    <g
       id="g470" />
    <g
       id="g472" />
    <g
       id="g474" />
    <g
       id="g476" />
    <g
       id="g478" />
    <g
       id="g480" />
    <g
       id="g482" />
    <g
       id="g484" />
    <g
       id="g486" />
    <g
       id="g488" />
    <g
       id="g490" />
    <g
       id="g492" />
    <g
       id="g494" />
    <g
       id="g496" />
    <g
       id="g498" />
    <g
       id="g500" />
    <g
       id="g502" />
    <g
       id="g504" />
    <g
       id="g506" />
    <g
       id="g508" />
    <g
       id="g510" />
    <g
       id="g512" />
    <g
       id="g514" />
    <g
       id="g516" />
    <g
       id="g518" />
    <g
       id="g520" />
    <g
       id="g522" />
    <g
       id="g524" />
    <g
       id="g526" />
    <g
       id="g528" />
    <g
       id="g530" />
    <g
       id="g532" />
    <g
       id="g534" />
    <g
       id="g536" />
    <g
       id="g538" />
    <g
       id="g540" />
  </g>
  <g
     style="fill:#000000; fill-opacity:0.0;  stroke:#000000; stroke-width:0.1500; stroke-opacity:1;  stroke-linecap:round; stroke-linejoin:round;"
     id="g544" />
  <g
     style="fill:#000000; fill-opacity:0.0;  stroke:#000000; stroke-width:0.1200; stroke-opacity:1;  stroke-linecap:round; stroke-linejoin:round;"
     id="g1026">
    <path
       d="M21.6594 39.5663 L21.6594 53.5663 "
       id="path546" />
    <path
       d="M21.6594 53.5663 L35.6594 53.5663 "
       id="path548" />
    <path
       d="M35.6594 39.5663 L21.6594 39.5663 "
       id="path550" />
    <path
       d="M35.6594 53.5663 L35.6594 39.5663 "
       id="path552" />
    <path
       d="M59.6594 66.5663 L59.6594 80.5663 "
       id="path554" />
    <path
       d="M59.6594 80.5663 L73.6594 80.5663 "
       id="path556" />
    <path
       d="M73.6594 66.5663 L59.6594 66.5663 "
       id="path558" />
    <path
       d="M73.6594 80.5663 L73.6594 66.5663 "
       id="path560" />
    <path
       d="M40.6594 34.5663 L40.6594 48.5663 "
       id="path562" />
    <path
       d="M40.6594 48.5663 L54.6594 48.5663 "
       id="path564" />
    <path
       d="M54.6594 34.5663 L40.6594 34.5663 "
       id="path566" />
    <path
       d="M54.6594 48.5663 L54.6594 34.5663 "
       id="path568" />
    <path
       d="M103.6802 71.8598 L98.8919 85.0155 "
       id="path570" />
    <path
       d="M98.8919 85.0155 L112.0476 89.8038 "
       id="path572" />
    <path
       d="M116.8359 76.6481 L103.6802 71.8598 "
       id="path574" />
    <path
       d="M112.0476 89.8038 L116.8359 76.6481 "
       id="path576" />
    <path
       d="M78.6594 42.0663 L78.6594 56.0663 "
       id="path578" />
    <path
       d="M78.6594 56.0663 L92.6594 56.0663 "
       id="path580" />
    <path
       d="M92.6594 42.0663 L78.6594 42.0663 "
       id="path582" />
    <path
       d="M92.6594 56.0663 L92.6594 42.0663 "
       id="path584" />
    <path
       d="M2.6594 52.0663 L2.6594 66.0663 "
       id="path586" />
    <path
       d="M2.6594 66.0663 L16.6594 66.0663 "
       id="path588" />
    <path
       d="M16.6594 52.0663 L2.6594 52.0663 "
       id="path590" />
    <path
       d="M16.6594 66.0663 L16.6594 52.0663 "
       id="path592" />
    <path
       d="M59.6594 23.5663 L59.6594 37.5663 "
       id="path594" />
    <path
       d="M59.6594 37.5663 L73.6594 37.5663 "
       id="path596" />
    <path
       d="M73.6594 23.5663 L59.6594 23.5663 "
       id="path598" />
    <path
       d="M73.6594 37.5663 L73.6594 23.5663 "
       id="path600" />
    <path
       d="M81.9014 67.2874 L79.4703 81.0747 "
       id="path602" />
    <path
       d="M79.4703 81.0747 L93.2576 83.5058 "
       id="path604" />
    <path
       d="M95.6887 69.7185 L81.9014 67.2874 "
       id="path606" />
    <path
       d="M93.2576 83.5058 L95.6887 69.7185 "
       id="path608" />
    <path
       d="M59.6594 7.5663 L59.6594 21.5663 "
       id="path610" />
    <path
       d="M59.6594 21.5663 L73.6594 21.5663 "
       id="path612" />
    <path
       d="M73.6594 7.5663 L59.6594 7.5663 "
       id="path614" />
    <path
       d="M73.6594 21.5663 L73.6594 7.5663 "
       id="path616" />
    <path
       d="M59.6594 39.5663 L59.6594 53.5663 "
       id="path618" />
    <path
       d="M59.6594 53.5663 L73.6594 53.5663 "
       id="path620" />
    <path
       d="M73.6594 39.5663 L59.6594 39.5663 "
       id="path622" />
    <path
       d="M73.6594 53.5663 L73.6594 39.5663 "
       id="path624" />
    <path
       d="M21.6594 23.5663 L21.6594 37.5663 "
       id="path626" />
    <path
       d="M21.6594 37.5663 L35.6594 37.5663 "
       id="path628" />
    <path
       d="M35.6594 23.5663 L21.6594 23.5663 "
       id="path630" />
    <path
       d="M35.6594 37.5663 L35.6594 23.5663 "
       id="path632" />
    <path
       d="M40.6594 2.5663 L40.6594 16.5663 "
       id="path634" />
    <path
       d="M40.6594 16.5663 L54.6594 16.5663 "
       id="path636" />
    <path
       d="M54.6594 2.5663 L40.6594 2.5663 "
       id="path638" />
    <path
       d="M54.6594 16.5663 L54.6594 2.5663 "
       id="path640" />
    <path
       d="M78.6594 26.0663 L78.6594 40.0663 "
       id="path642" />
    <path
       d="M78.6594 40.0663 L92.6594 40.0663 "
       id="path644" />
    <path
       d="M92.6594 26.0663 L78.6594 26.0663 "
       id="path646" />
    <path
       d="M92.6594 40.0663 L92.6594 26.0663 "
       id="path648" />
    <path
       d="M78.6594 10.0663 L78.6594 24.0663 "
       id="path650" />
    <path
       d="M78.6594 24.0663 L92.6594 24.0663 "
       id="path652" />
    <path
       d="M92.6594 10.0663 L78.6594 10.0663 "
       id="path654" />
    <path
       d="M92.6594 24.0663 L92.6594 10.0663 "
       id="path656" />
    <path
       d="M40.6594 18.5663 L40.6594 32.5663 "
       id="path658" />
    <path
       d="M40.6594 32.5663 L54.6594 32.5663 "
       id="path660" />
    <path
       d="M54.6594 18.5663 L40.6594 18.5663 "
       id="path662" />
    <path
       d="M54.6594 32.5663 L54.6594 18.5663 "
       id="path664" />
    <path
       d="M21.6594 7.5663 L21.6594 21.5663 "
       id="path666" />
    <path
       d="M21.6594 21.5663 L35.6594 21.5663 "
       id="path668" />
    <path
       d="M35.6594 7.5663 L21.6594 7.5663 "
       id="path670" />
    <path
       d="M35.6594 21.5663 L35.6594 7.5663 "
       id="path672" />
    <path
       d="M2.6594 36.0663 L2.6594 50.0663 "
       id="path674" />
    <path
       d="M2.6594 50.0663 L16.6594 50.0663 "
       id="path676" />
    <path
       d="M16.6594 36.0663 L2.6594 36.0663 "
       id="path678" />
    <path
       d="M16.6594 50.0663 L16.6594 36.0663 "
       id="path680" />
    <path
       d="M192.1098 34.5663 L192.1098 48.5663 "
       id="path682" />
    <path
       d="M192.1098 48.5663 L206.1098 48.5663 "
       id="path684" />
    <path
       d="M206.1098 34.5663 L192.1098 34.5663 "
       id="path686" />
    <path
       d="M206.1098 48.5663 L206.1098 34.5663 "
       id="path688" />
    <path
       d="M192.1098 2.5663 L192.1098 16.5663 "
       id="path690" />
    <path
       d="M192.1098 16.5663 L206.1098 16.5663 "
       id="path692" />
    <path
       d="M206.1098 2.5663 L192.1098 2.5663 "
       id="path694" />
    <path
       d="M206.1098 16.5663 L206.1098 2.5663 "
       id="path696" />
    <path
       d="M211.1098 39.5663 L211.1098 53.5663 "
       id="path698" />
    <path
       d="M211.1098 53.5663 L225.1098 53.5663 "
       id="path700" />
    <path
       d="M225.1098 39.5663 L211.1098 39.5663 "
       id="path702" />
    <path
       d="M225.1098 53.5663 L225.1098 39.5663 "
       id="path704" />
    <path
       d="M211.1098 23.5663 L211.1098 37.5663 "
       id="path706" />
    <path
       d="M211.1098 37.5663 L225.1098 37.5663 "
       id="path708" />
    <path
       d="M225.1098 23.5663 L211.1098 23.5663 "
       id="path710" />
    <path
       d="M225.1098 37.5663 L225.1098 23.5663 "
       id="path712" />
    <path
       d="M129.9333 76.6481 L134.7216 89.8038 "
       id="path714" />
    <path
       d="M134.7216 89.8038 L147.8773 85.0155 "
       id="path716" />
    <path
       d="M143.0890 71.8598 L129.9333 76.6481 "
       id="path718" />
    <path
       d="M147.8773 85.0155 L143.0890 71.8598 "
       id="path720" />
    <path
       d="M151.0805 69.7185 L153.5116 83.5058 "
       id="path722" />
    <path
       d="M153.5116 83.5058 L167.2989 81.0747 "
       id="path724" />
    <path
       d="M164.8679 67.2874 L151.0805 69.7185 "
       id="path726" />
    <path
       d="M167.2989 81.0747 L164.8679 67.2874 "
       id="path728" />
    <path
       d="M2.6594 20.0663 L2.6594 34.0663 "
       id="path730" />
    <path
       d="M2.6594 34.0663 L16.6594 34.0663 "
       id="path732" />
    <path
       d="M16.6594 20.0663 L2.6594 20.0663 "
       id="path734" />
    <path
       d="M16.6594 34.0663 L16.6594 20.0663 "
       id="path736" />
    <path
       d="M154.1098 42.0663 L154.1098 56.0663 "
       id="path738" />
    <path
       d="M154.1098 56.0663 L168.1098 56.0663 "
       id="path740" />
    <path
       d="M168.1098 42.0663 L154.1098 42.0663 "
       id="path742" />
    <path
       d="M168.1098 56.0663 L168.1098 42.0663 "
       id="path744" />
    <path
       d="M192.1098 18.5663 L192.1098 32.5663 "
       id="path746" />
    <path
       d="M192.1098 32.5663 L206.1098 32.5663 "
       id="path748" />
    <path
       d="M206.1098 18.5663 L192.1098 18.5663 "
       id="path750" />
    <path
       d="M206.1098 32.5663 L206.1098 18.5663 "
       id="path752" />
    <path
       d="M230.1098 36.0663 L230.1098 50.0663 "
       id="path754" />
    <path
       d="M230.1098 50.0663 L244.1098 50.0663 "
       id="path756" />
    <path
       d="M244.1098 36.0663 L230.1098 36.0663 "
       id="path758" />
    <path
       d="M244.1098 50.0663 L244.1098 36.0663 "
       id="path760" />
    <path
       d="M173.1098 66.5663 L173.1098 80.5663 "
       id="path762" />
    <path
       d="M173.1098 80.5663 L187.1098 80.5663 "
       id="path764" />
    <path
       d="M187.1098 66.5663 L173.1098 66.5663 "
       id="path766" />
    <path
       d="M187.1098 80.5663 L187.1098 66.5663 "
       id="path768" />
    <path
       d="M173.1098 23.5663 L173.1098 37.5663 "
       id="path770" />
    <path
       d="M173.1098 37.5663 L187.1098 37.5663 "
       id="path772" />
    <path
       d="M187.1098 23.5663 L173.1098 23.5663 "
       id="path774" />
    <path
       d="M187.1098 37.5663 L187.1098 23.5663 "
       id="path776" />
    <path
       d="M173.1098 39.5663 L173.1098 53.5663 "
       id="path778" />
    <path
       d="M173.1098 53.5663 L187.1098 53.5663 "
       id="path780" />
    <path
       d="M187.1098 39.5663 L173.1098 39.5663 "
       id="path782" />
    <path
       d="M187.1098 53.5663 L187.1098 39.5663 "
       id="path784" />
    <path
       d="M154.1098 26.0663 L154.1098 40.0663 "
       id="path786" />
    <path
       d="M154.1098 40.0663 L168.1098 40.0663 "
       id="path788" />
    <path
       d="M168.1098 26.0663 L154.1098 26.0663 "
       id="path790" />
    <path
       d="M168.1098 40.0663 L168.1098 26.0663 "
       id="path792" />
    <path
       d="M154.1098 10.0663 L154.1098 24.0663 "
       id="path794" />
    <path
       d="M154.1098 24.0663 L168.1098 24.0663 "
       id="path796" />
    <path
       d="M168.1098 10.0663 L154.1098 10.0663 "
       id="path798" />
    <path
       d="M168.1098 24.0663 L168.1098 10.0663 "
       id="path800" />
    <path
       d="M173.1098 7.5663 L173.1098 21.5663 "
       id="path802" />
    <path
       d="M173.1098 21.5663 L187.1098 21.5663 "
       id="path804" />
    <path
       d="M187.1098 7.5663 L173.1098 7.5663 "
       id="path806" />
    <path
       d="M187.1098 21.5663 L187.1098 7.5663 "
       id="path808" />
    <path
       d="M230.1098 52.0663 L230.1098 66.0663 "
       id="path810" />
    <path
       d="M230.1098 66.0663 L244.1098 66.0663 "
       id="path812" />
    <path
       d="M244.1098 52.0663 L230.1098 52.0663 "
       id="path814" />
    <path
       d="M244.1098 66.0663 L244.1098 52.0663 "
       id="path816" />
    <path
       d="M211.1098 7.5663 L211.1098 21.5663 "
       id="path818" />
    <path
       d="M211.1098 21.5663 L225.1098 21.5663 "
       id="path820" />
    <path
       d="M225.1098 7.5663 L211.1098 7.5663 "
       id="path822" />
    <path
       d="M225.1098 21.5663 L225.1098 7.5663 "
       id="path824" />
    <path
       d="M230.1098 20.0663 L230.1098 34.0663 "
       id="path826" />
    <path
       d="M230.1098 34.0663 L244.1098 34.0663 "
       id="path828" />
    <path
       d="M244.1098 20.0663 L230.1098 20.0663 "
       id="path830" />
    <path
       d="M244.1098 34.0663 L244.1098 20.0663 "
       id="path832" />
    <g
       id="g834" />
    <g
       id="g836" />
    <g
       id="g838" />
    <g
       id="g840" />
    <g
       id="g842" />
    <g
       id="g844" />
    <g
       id="g846" />
    <g
       id="g848" />
    <g
       id="g850" />
    <g
       id="g852" />
    <g
       id="g854" />
    <g
       id="g856" />
    <g
       id="g858" />
    <g
       id="g860" />
    <g
       id="g862" />
    <g
       id="g864" />
    <g
       id="g866" />
    <g
       id="g868" />
    <g
       id="g870" />
    <g
       id="g872" />
    <g
       id="g874" />
    <g
       id="g876" />
    <g
       id="g878" />
    <g
       id="g880" />
    <g
       id="g882" />
    <g
       id="g884" />
    <g
       id="g886" />
    <g
       id="g888" />
    <g
       id="g890" />
    <g
       id="g892" />
    <g
       id="g894" />
    <g
       id="g896" />
    <g
       id="g898" />
    <g
       id="g900" />
    <g
       id="g902" />
    <g
       id="g904" />
    <g
       id="g906" />
    <g
       id="g908" />
    <g
       id="g910" />
    <g
       id="g912" />
    <g
       id="g914" />
    <g
       id="g916" />
    <g
       id="g918" />
    <g
       id="g920" />
    <g
       id="g922" />
    <g
       id="g924" />
    <g
       id="g926" />
    <g
       id="g928" />
    <g
       id="g930" />
    <g
       id="g932" />
    <g
       id="g934" />
    <g
       id="g936" />
    <g
       id="g938" />
    <g
       id="g940" />
    <g
       id="g942" />
    <g
       id="g944" />
    <g
       id="g946" />
    <g
       id="g948" />
    <g
       id="g950" />
    <g
       id="g952" />
    <g
       id="g954" />
    <g
       id="g956" />
    <g
       id="g958" />
    <g
       id="g960" />
    <g
       id="g962" />
    <g
       id="g964" />
    <g
       id="g966" />
    <g
       id="g968" />
    <g
       id="g970" />
    <g
       id="g972" />
    <g
       id="g974" />
    <g
       id="g976" />
    <g
       id="g978" />
    <g
       id="g980" />
    <g
       id="g982" />
    <g
       id="g984" />
    <g
       id="g986" />
    <g
       id="g988" />
    <g
       id="g990" />
    <g
       id="g992" />
    <g
       id="g994" />
    <g
       id="g996" />
    <g
       id="g998" />
    <g
       id="g1000" />
    <g
       id="g1002" />
    <g
       id="g1004" />
    <g
       id="g1006" />
    <g
       id="g1008" />
    <g
       id="g1010" />
    <g
       id="g1012" />
    <g
       id="g1014" />
    <g
       id="g1016" />
    <g
       id="g1018" />
    <g
       id="g1020" />
    <g
       id="g1022" />
    <g
       id="g1024" />
  </g>
  <g
     style="fill:#000000; fill-opacity:0.0;  stroke:#000000; stroke-width:0.1200; stroke-opacity:1;  stroke-linecap:round; stroke-linejoin:round;"
     id="g1028" />
  <g
     style="fill:#000000; fill-opacity:0.0;  stroke:#000000; stroke-width:0.0500; stroke-opacity:1;  stroke-linecap:round; stroke-linejoin:round;"
     id="g1032">
    <path
       style="fill:#000000; fill-opacity:0.0;  stroke:#000000; stroke-width:0.0500; stroke-opacity:1;  stroke-linecap:round; stroke-linejoin:round;fill:none"
       d="M 98.4913,30.6710 119.0313,30.6710 119.0313,62.4410 98.4913,62.4410 Z"
       id="path1030" />
  </g>
  <g
     style="fill:#000000; fill-opacity:0.0;  stroke:#000000; stroke-width:0.2500; stroke-opacity:1;  stroke-linecap:round; stroke-linejoin:round;"
     id="g1076">
    <path
       d="M56.4331,0.8606 C56.8991,1.3313 57.1575,1.9689 57.1508,2.6312"
       id="path1034" />
    <path
       d="M57.1508 2.6312 L57.1255 5.1269 "
       id="path1036" />
    <path
       d="M188.0579,83.1833 C189.2490,83.1832 190.2146,82.2176 190.2146,81.0265"
       id="path1038" />
    <path
       d="M38.8087,0.8023 C39.2372,0.3692 39.8212,0.1256 40.4305,0.1256"
       id="path1040" />
    <path
       d="M114.6557,91.2321 C114.2482,92.3513 113.0106,92.9284 111.8913,92.5210"
       id="path1042" />
    <path
       d="M244.4779,68.5110 C245.6690,68.5109 246.6346,67.5453 246.6346,66.3542"
       id="path1044" />
    <path
       d="M95.6480 86.6097 L76.1760 83.1758 "
       id="path1046" />
    <path
       d="M188.0579 83.1833 L170.5932 83.1758 "
       id="path1048" />
    <path
       d="M38.1487,2.4310 C38.1424,1.8218 38.3801,1.2353 38.8087,0.8023"
       id="path1050" />
    <path
       d="M118.3846,7.6227 C119.5757,7.6228 120.5413,8.5884 120.5413,9.7795"
       id="path1052" />
    <path
       d="M225.1579 56.0610 L192.3713 56.0610 "
       id="path1054" />
    <path
       d="M73.6751,5.1263 C74.3339,5.1262 74.9650,5.3914 75.4261,5.8618"
       id="path1056" />
    <path
       d="M57.1255 5.1269 L73.6751 5.1263 "
       id="path1058" />
    <path
       d="M207.9606,0.8023 C207.5320,0.3692 206.9480,0.1256 206.3387,0.1256"
       id="path1060" />
    <path
       d="M128.3846 7.6227 L170.6420 7.6249 "
       id="path1062" />
    <path
       d="M2.2913,68.5110 C1.1002,68.5109 0.1347,67.5453 0.1346,66.3542"
       id="path1064" />
    <path
       d="M229.4779 68.5110 L244.4779 68.5110 "
       id="path1066" />
    <path
       d="M58.7113,83.1833 C57.5202,83.1832 56.5547,82.2176 56.5546,81.0265"
       id="path1068" />
    <path
       d="M0.1346 66.3542 L0.1250 19.7825 "
       id="path1070" />
    <path
       d="M227.6327 7.3841 L227.5927 17.6251 "
       id="path1072" />
    <path
       d="M170.5932 83.1758 L151.1212 86.6097 "
       id="path1074" />
  </g>
  <g
     style="fill:#000000; fill-opacity:0.0;  stroke:#000000; stroke-width:0.0500; stroke-opacity:1;  stroke-linecap:round; stroke-linejoin:round;"
     id="g1080">
    <path
       style="fill:#000000; fill-opacity:0.0;  stroke:#000000; stroke-width:0.0500; stroke-opacity:1;  stroke-linecap:round; stroke-linejoin:round;fill:none"
       d="M 127.7379,30.6710 148.2779,30.6710 148.2779,62.4410 127.7379,62.4410 Z"
       id="path1078" />
  </g>
  <g
     style="fill:#000000; fill-opacity:0.0;  stroke:#000000; stroke-width:0.2500; stroke-opacity:1;  stroke-linecap:round; stroke-linejoin:round;"
     id="g1188">
    <path
       d="M111.8913 92.5210 L95.6480 86.6097 "
       id="path1082" />
    <path
       d="M19.4481 66.3543 L19.4545 58.2177 "
       id="path1084" />
    <path
       d="M21.3852 5.1265 L38.1765 5.1265 "
       id="path1086" />
    <path
       d="M75.4261,5.8618 C75.8873,6.3323 76.1396,6.9686 76.1264,7.6273"
       id="path1088" />
    <path
       d="M208.6205,2.4310 C208.6268,1.8218 208.3892,1.2353 207.9606,0.8023"
       id="path1090" />
    <path
       d="M19.1365,7.3841 C19.1341,6.7862 19.3700,6.2120 19.7920,5.7883"
       id="path1092" />
    <path
       d="M120.5413,73.6810 C120.4513,75.0510 120.1933,76.0174 119.7860,77.1367"
       id="path1094" />
    <path
       d="M208.6205 2.4310 L208.5928 5.1265 "
       id="path1096" />
    <path
       d="M132.1135 91.2321 L126.9832 77.1367 "
       id="path1098" />
    <path
       d="M171.3431,5.8618 C170.8819,6.3323 170.6296,6.9686 170.6428,7.6273"
       id="path1102" />
    <path
       d="M227.3147,58.2177 C227.3146,57.0266 226.3490,56.0611 225.1579,56.0610"
       id="path1104" />
    <path
       d="M19.4481,66.3543 C19.4480,67.5454 18.4824,68.5110 17.2913,68.5110"
       id="path1108" />
    <path
       d="M19.1765 17.6251 L19.1365 7.3841 "
       id="path1110" />
    <path
       d="M76.1272 7.6249 L118.3846 7.6227 "
       id="path1112" />
    <path
       d="M246.6442 19.7825 L246.6346 66.3542 "
       id="path1114" />
    <path
       d="M54.6699,0.1250 C55.3322,0.1250 55.9671,0.3898 56.4331,0.8606"
       id="path1118" />
    <path
       d="M227.3147 58.2177 L227.3211 66.3543 "
       id="path1120" />
    <path
       d="M190.3361,0.8606 C189.8701,1.3313 189.6117,1.9689 189.6184,2.6312"
       id="path1122" />
    <path
       d="M126.2279,73.6810 C126.3179,75.0510 126.5759,76.0174 126.9832,77.1367"
       id="path1124" />
    <path
       d="M 126.2299,9.8286699 126.2279,73.681"
       id="path1126"
       style="stroke-width:0.251128" />
    <path
       d="M173.0941 5.1263 L189.6437 5.1269 "
       id="path1128" />
    <path
       d="M2.2818 17.6257 L19.1765 17.6251 "
       id="path1130" />
    <path
       d="M227.3211,66.3543 C227.3212,67.5454 228.2868,68.5110 229.4779,68.5110"
       id="path1132" />
    <path
       d="M19.4545,58.2177 C19.4546,57.0266 20.4202,56.0611 21.6113,56.0610"
       id="path1134" />
    <path
       d="M40.4305 0.1256 L54.6699 0.1250 "
       id="path1136" />
    <path
       d="M190.2146 81.0265 L190.2146 58.2178 "
       id="path1138" />
    <path
       d="M173.0941,5.1263 C172.4353,5.1262 171.8042,5.3914 171.3431,5.8618"
       id="path1140" />
    <path
       d="M151.1212 86.6097 L134.8779 92.5210 "
       id="path1142" />
    <path
       d="M192.0994,0.1250 C191.4370,0.1250 190.8021,0.3898 190.3361,0.8606"
       id="path1144" />
    <path
       d="M2.2913 68.5110 L17.2913 68.5110 "
       id="path1146" />
    <path
       d="M38.1765 5.1265 L38.1487 2.4310 "
       id="path1148" />
    <path
       d="M119.7860 77.1367 L114.6557 91.2321 "
       id="path1150" />
    <path
       d="M54.3979 56.0610 L21.6113 56.0610 "
       id="path1152" />
    <path
       d="M208.5928 5.1265 L225.3840 5.1265 "
       id="path1154" />
    <path
       d="M189.6437 5.1269 L189.6184 2.6312 "
       id="path1156" />
    <path
       d="M192.0994 0.1250 L206.3387 0.1256 "
       id="path1158" />
    <path
       d="M227.5927 17.6251 L244.4874 17.6257 "
       id="path1160" />
    <path
       d="M132.1135,91.2321 C132.5210,92.3513 133.7586,92.9284 134.8779,92.5210"
       id="path1164" />
    <path
       d="M226.9772,5.7883 C226.5552,5.3647 225.9819,5.1265 225.3840,5.1265"
       id="path1166" />
    <path
       d="M 120.5413,73.681 V 9.7795"
       id="path1168"
       style="stroke-width:0.272003" />
    <path
       d="M76.1760 83.1758 L58.7113 83.1833 "
       id="path1170" />
    <path
       d="M227.6327,7.3841 C227.6351,6.7862 227.3992,6.2120 226.9772,5.7883"
       id="path1172" />
    <path
       d="M0.1250,19.7825 C0.1251,18.5913 1.0907,17.6258 2.2818,17.6257"
       id="path1174" />
    <path
       d="M128.3846,7.6227 C127.1935,7.6228 126.2280,8.5884 126.2279,9.7795"
       id="path1176" />
    <path
       d="M246.6442,19.7825 C246.6441,18.5913 245.6785,17.6258 244.4874,17.6257"
       id="path1178" />
    <path
       d="M19.7920,5.7883 C20.2140,5.3647 20.7873,5.1265 21.3852,5.1265"
       id="path1180" />
    <path
       d="M192.3713,56.0610 C191.1802,56.0611 190.2147,57.0267 190.2146,58.2178"
       id="path1182" />
    <path
       d="M56.5546 58.2178 L56.5546 81.0265 "
       id="path1184" />
    <path
       d="M54.3979,56.0610 C55.5890,56.0611 56.5546,57.0267 56.5546,58.2178"
       id="path1186" />
  </g>
  <metadata
     id="metadata2301">
    <rdf:RDF>
      <cc:Work
         rdf:about="">
        <dc:title>SVG Image created as bykeeb-brd.svg date 2024/06/30 15:42:09 </dc:title>
      </cc:Work>
    </rdf:RDF>
  </metadata>
</svg>
