<?xml version="1.0" standalone="no"?>
<!DOCTYPE svg PUBLIC "-//W3C//DTD SVG 20010904//EN"
 "http://www.w3.org/TR/2001/REC-SVG-20010904/DTD/svg10.dtd">
<svg version="1.0" xmlns="http://www.w3.org/2000/svg"
 width="1350.000000pt" height="1362.000000pt" viewBox="0 0 1350.000000 1362.000000"
 preserveAspectRatio="xMidYMid meet">
<metadata>
Created by potrace 1.10, written by Peter Selinger 2001-2011
</metadata>
<g transform="translate(0.000000,1362.000000) scale(0.100000,-0.100000)"
fill="#000000" stroke="none">
<path d="M6520 12255 c-8 -2 -100 -8 -205 -15 -455 -27 -868 -104 -1340 -251
-100 -31 -132 -42 -215 -74 -25 -9 -61 -23 -80 -30 -179 -66 -541 -236 -705
-330 -33 -19 -69 -39 -80 -45 -21 -11 -34 -18 -103 -62 -24 -16 -45 -28 -47
-28 -2 0 -32 -19 -67 -42 -35 -24 -71 -47 -80 -53 -59 -35 -346 -245 -409
-299 -19 -17 -57 -49 -84 -71 -146 -120 -321 -286 -520 -496 -86 -90 -291
-337 -366 -439 -88 -119 -159 -220 -159 -225 0 -2 -19 -32 -43 -67 -41 -60
-155 -246 -170 -278 -4 -8 -23 -42 -42 -75 -19 -33 -69 -129 -111 -213 -42
-83 -80 -155 -85 -158 -6 -3 -31 -1 -57 5 -26 6 -69 15 -96 21 -172 38 -405
70 -511 69 -96 0 -243 -22 -282 -42 -75 -39 -133 -134 -133 -217 0 -93 79
-206 180 -258 152 -78 381 -277 533 -463 41 -51 44 -68 23 -143 -37 -131 -84
-400 -123 -701 -25 -198 -25 -996 0 -1154 9 -58 17 -123 17 -145 0 -23 5 -58
11 -79 5 -20 14 -70 19 -110 9 -79 25 -162 45 -247 7 -30 21 -89 30 -130 16
-73 26 -112 61 -235 27 -96 46 -157 59 -195 7 -19 18 -51 24 -70 7 -19 16 -48
21 -65 5 -16 18 -55 30 -85 12 -30 25 -67 30 -81 4 -14 12 -34 18 -45 6 -10
27 -59 48 -109 41 -101 102 -235 141 -310 42 -83 104 -199 113 -215 5 -8 40
-67 76 -130 59 -101 108 -177 234 -365 32 -48 201 -272 239 -318 178 -212 401
-447 581 -613 188 -173 586 -475 762 -579 9 -5 65 -40 125 -76 59 -36 115 -68
123 -72 8 -4 44 -23 80 -43 167 -92 406 -205 570 -269 25 -10 59 -23 75 -30
32 -14 89 -35 145 -54 107 -36 251 -82 295 -95 109 -31 163 -45 220 -59 33 -8
83 -21 110 -27 28 -7 70 -16 95 -20 25 -4 68 -12 95 -18 73 -15 223 -39 360
-56 556 -71 1236 -48 1735 59 36 8 79 16 95 18 17 2 53 10 80 17 28 6 77 19
110 27 112 27 263 70 315 88 19 7 51 18 70 24 19 7 49 16 65 21 45 12 159 53
210 75 17 7 50 20 75 30 25 10 59 23 75 31 190 83 234 103 327 150 48 24 114
57 145 75 32 17 78 43 103 56 25 14 87 51 138 82 51 31 100 61 110 66 136 80
464 324 655 488 169 144 416 389 547 542 52 61 103 119 113 130 31 33 307 402
307 410 0 4 14 24 30 45 16 21 30 40 30 43 0 3 19 34 43 69 24 35 46 70 50 78
4 8 16 29 26 45 11 17 31 50 44 75 14 25 34 61 45 80 26 44 192 377 222 445
12 28 28 64 35 80 13 29 63 153 91 225 21 55 65 182 74 215 4 17 13 44 18 60
6 17 18 57 28 90 9 33 23 80 30 105 24 85 41 155 59 235 9 44 23 105 31 136 8
30 14 66 14 80 0 13 6 56 14 94 19 89 41 257 61 455 17 179 21 757 5 885 -19
154 -30 317 -23 330 5 7 31 37 58 67 28 29 106 113 174 186 68 74 185 187 260
251 216 188 277 260 300 357 10 40 10 62 1 95 -23 84 -46 117 -112 157 -34 21
-46 23 -150 19 -62 -2 -171 -9 -243 -15 -71 -6 -223 -17 -338 -23 -200 -12
-208 -12 -222 7 -8 10 -17 30 -21 44 -6 26 -27 85 -49 135 -7 17 -30 71 -50
120 -271 656 -693 1285 -1204 1795 -121 121 -315 296 -411 371 -30 23 -57 46
-60 49 -14 18 -311 235 -378 275 -9 6 -44 28 -77 50 -68 45 -91 60 -120 75
-11 6 -33 19 -50 29 -16 11 -50 31 -75 44 -25 14 -61 34 -80 45 -88 52 -409
207 -520 252 -30 12 -68 28 -85 35 -16 7 -49 20 -72 29 -106 40 -130 49 -161
62 -18 8 -39 14 -47 14 -8 0 -29 6 -47 14 -18 7 -60 21 -93 31 -121 35 -140
40 -305 86 -25 7 -63 15 -85 19 -22 4 -60 12 -85 18 -181 44 -528 94 -780 112
-161 12 -524 22 -550 15z m575 -340 c94 -9 213 -22 265 -31 52 -8 106 -14 120
-14 14 0 59 -7 100 -15 41 -9 109 -23 150 -31 110 -23 198 -43 258 -59 28 -8
76 -21 105 -29 72 -20 346 -107 382 -122 17 -6 48 -19 70 -27 147 -55 284
-116 465 -206 173 -86 214 -109 358 -196 46 -27 91 -55 100 -60 89 -53 463
-321 482 -345 3 -3 28 -24 55 -46 105 -83 215 -183 371 -339 222 -222 371
-397 557 -654 77 -107 222 -327 244 -371 6 -14 82 -146 103 -180 16 -27 147
-294 174 -355 50 -111 53 -120 71 -165 9 -25 23 -56 30 -70 7 -14 16 -39 20
-57 8 -39 7 -39 -152 -47 l-111 -5 -42 97 c-161 370 -299 625 -499 917 -67
100 -157 222 -171 235 -3 3 -23 28 -45 55 -309 391 -700 748 -1136 1039 -136
92 -140 94 -164 106 -11 6 -33 19 -50 30 -16 11 -39 24 -50 30 -11 5 -47 25
-80 44 -112 64 -371 190 -485 236 -30 12 -86 35 -124 51 -38 16 -75 29 -82 29
-7 0 -28 6 -46 14 -55 23 -110 43 -173 61 -33 10 -78 24 -100 31 -38 11 -84
23 -220 57 -33 9 -94 22 -135 31 -41 8 -109 22 -150 31 -41 8 -85 15 -98 15
-13 0 -60 6 -105 14 -169 30 -411 46 -682 46 -271 0 -513 -16 -682 -46 -45 -8
-94 -14 -110 -14 -15 0 -59 -7 -98 -15 -38 -9 -104 -23 -145 -31 -110 -23
-280 -65 -355 -88 -22 -7 -67 -21 -100 -31 -33 -9 -71 -22 -85 -27 -14 -5 -56
-20 -95 -33 -72 -25 -121 -43 -165 -62 -14 -6 -50 -21 -80 -33 -116 -47 -377
-173 -485 -234 -33 -19 -78 -44 -100 -56 -22 -12 -59 -35 -83 -51 -24 -16 -45
-29 -47 -29 -2 0 -53 -33 -112 -73 -313 -211 -513 -376 -768 -631 -141 -141
-199 -204 -329 -357 -150 -176 -354 -476 -512 -754 -7 -11 -31 -57 -54 -102
-23 -45 -49 -84 -58 -87 -26 -7 -255 29 -259 41 -5 13 137 289 204 395 13 21
23 40 23 43 0 3 9 18 19 33 11 15 49 72 84 127 215 329 415 575 696 856 144
144 205 199 321 297 14 11 36 31 50 43 141 123 612 447 730 502 8 4 31 17 50
29 119 72 490 246 673 314 97 37 124 47 155 60 18 8 39 14 47 14 8 0 29 6 47
14 31 13 54 20 193 59 308 88 630 147 985 181 208 19 656 20 865 1z m-220
-2590 c141 -8 364 -45 491 -81 28 -8 59 -14 70 -14 10 0 36 -6 59 -14 22 -7
67 -21 100 -31 33 -10 92 -29 130 -42 39 -14 84 -28 100 -33 43 -12 182 -66
270 -106 17 -7 57 -25 90 -39 121 -54 352 -172 420 -216 17 -10 39 -23 50 -28
11 -5 37 -21 58 -35 21 -14 40 -26 42 -26 15 0 320 -225 344 -253 17 -21 54
-21 129 -2 176 44 641 65 1012 45 467 -26 1094 -22 1665 11 99 6 261 14 360
19 99 5 248 16 330 25 188 20 241 15 284 -27 18 -18 39 -47 47 -66 46 -112
-20 -220 -261 -422 -95 -80 -181 -163 -326 -316 -65 -69 -113 -122 -244 -269
-38 -43 -75 -83 -81 -89 -6 -6 -78 -92 -161 -191 -218 -261 -358 -391 -569
-531 -112 -74 -111 -74 -219 -128 -110 -54 -155 -71 -265 -98 -164 -39 -205
-49 -235 -59 -27 -9 -78 -25 -160 -49 -16 -4 -46 -14 -65 -21 -19 -6 -51 -17
-70 -24 -61 -21 -175 -53 -315 -89 -165 -41 -390 -53 -540 -28 -38 6 -94 14
-122 18 -51 6 -53 5 -63 -21 -13 -34 -5 -45 66 -86 71 -40 160 -123 185 -170
23 -47 24 -109 2 -169 -15 -41 -64 -116 -87 -131 -15 -11 1 -37 35 -55 18 -9
44 -27 58 -40 30 -28 34 -29 51 -9 7 8 17 15 23 15 6 0 18 6 26 14 44 38 242
96 328 96 51 0 108 -25 121 -54 15 -33 3 -176 -19 -211 -20 -33 -85 -75 -132
-84 -30 -6 -57 -34 -45 -47 4 -3 42 -10 85 -14 110 -12 147 -31 238 -124 96
-97 117 -143 91 -195 -42 -80 -112 -131 -181 -131 -44 0 -116 28 -130 50 -11
18 -22 11 -99 -64 l-76 -74 6 -85 c5 -64 3 -97 -9 -134 -8 -26 -18 -68 -22
-93 -3 -25 -20 -77 -36 -117 -16 -39 -29 -85 -29 -102 0 -16 -4 -32 -9 -35 -5
-3 -12 -18 -16 -33 -3 -16 -18 -40 -31 -54 -14 -15 -33 -41 -42 -60 -12 -23
-43 -50 -102 -86 -87 -55 -99 -65 -173 -143 -32 -34 -57 -50 -102 -64 -33 -10
-78 -26 -100 -35 -56 -23 -176 -22 -202 2 -12 10 -35 17 -58 17 -91 0 -180 53
-271 160 -44 51 -125 121 -137 117 -8 -2 -13 -32 -15 -83 -3 -75 6 -132 43
-269 113 -425 110 -407 108 -610 -1 -127 -6 -199 -17 -245 -20 -81 -21 -207
-3 -229 20 -23 47 -97 47 -127 0 -22 -10 -30 -67 -56 -38 -17 -79 -34 -93 -39
-14 -4 -50 -17 -80 -29 -168 -65 -466 -153 -660 -195 -41 -9 -95 -21 -120 -27
-25 -5 -72 -14 -105 -18 -33 -4 -91 -12 -130 -18 -203 -32 -264 -36 -628 -39
-252 -3 -418 -1 -475 7 -48 6 -130 15 -182 20 -52 5 -103 12 -112 15 -58 23
-59 309 -3 688 34 223 47 306 60 382 7 44 21 125 30 180 9 55 23 132 31 170 8
39 14 79 14 90 0 11 6 49 15 85 13 61 21 102 59 305 22 120 28 206 15 221 -12
15 -45 3 -64 -23 -6 -8 -36 -18 -68 -22 -31 -4 -59 -10 -61 -12 -2 -2 -16 -31
-31 -64 -15 -33 -53 -97 -83 -143 -52 -78 -55 -87 -56 -147 -1 -62 1 -66 37
-102 37 -37 39 -38 108 -37 l71 2 -5 -27 c-2 -14 -9 -46 -15 -71 -13 -52 -35
-162 -56 -275 -14 -75 -28 -160 -61 -370 -8 -49 -22 -137 -31 -195 -13 -78
-18 -170 -18 -355 -1 -137 -5 -253 -9 -256 -5 -4 -34 -1 -65 6 -32 7 -93 21
-137 30 -44 9 -102 23 -130 30 -27 8 -77 21 -110 30 -104 27 -169 47 -203 61
-18 8 -39 14 -47 14 -8 0 -29 6 -47 14 -31 13 -55 22 -155 60 -86 32 -223 90
-300 128 l-83 39 0 44 c0 85 54 330 105 475 61 174 59 156 17 200 -20 21 -45
49 -55 64 -22 32 -40 33 -64 3 -26 -33 -78 -67 -101 -67 -26 0 -82 47 -82 69
0 9 -13 35 -29 57 -46 63 -57 105 -44 166 10 49 10 54 -10 70 -21 17 -23 17
-64 -27 -34 -35 -43 -51 -43 -79 0 -47 -26 -99 -60 -120 -18 -10 -51 -16 -92
-16 -34 0 -70 -4 -77 -9 -18 -12 -49 3 -73 33 -33 40 -15 293 37 525 17 76 9
100 -39 130 -33 21 -76 76 -76 99 0 6 -13 30 -28 54 -85 129 -82 231 13 403
18 33 36 71 40 85 12 37 46 80 80 98 46 25 126 52 153 52 22 0 202 126 202
141 0 4 -27 39 -60 78 -94 112 -112 154 -141 321 -20 110 -22 117 -61 156 -41
43 -52 59 -85 129 -74 154 -70 243 15 369 51 76 59 83 126 106 75 25 127 63
109 80 -6 7 -51 16 -100 21 -117 12 -305 38 -373 51 -30 6 -77 14 -105 18 -27
4 -72 13 -100 20 -27 6 -77 19 -110 27 -97 24 -168 44 -203 59 -18 8 -39 14
-47 14 -8 0 -29 6 -47 14 -18 8 -73 31 -121 51 -93 38 -232 108 -257 129 -8 7
-22 16 -30 20 -49 22 -230 146 -370 252 -160 121 -294 249 -375 359 -17 22
-33 42 -36 45 -23 18 -122 199 -194 355 -87 185 -155 316 -206 393 -16 24 -29
45 -29 48 0 3 -28 42 -62 87 -205 272 -453 507 -643 608 -114 61 -165 129
-165 219 0 65 29 123 78 154 49 33 228 61 327 52 163 -15 332 -43 590 -101
160 -35 357 -68 515 -86 257 -28 246 -27 440 -66 80 -16 149 -32 365 -87 67
-16 154 -37 265 -61 41 -9 101 -23 132 -31 32 -8 68 -14 80 -14 13 0 52 -6 88
-14 36 -8 110 -22 165 -31 270 -44 382 -66 470 -90 122 -33 108 -37 287 69 90
53 170 101 178 106 8 5 35 20 60 33 25 14 74 41 110 61 145 80 432 218 585
281 50 20 104 42 120 49 62 27 92 38 160 61 38 12 81 27 95 33 103 40 366 106
570 143 99 18 356 38 435 33 39 -2 115 -6 170 -9z m-5258 -1805 c30 -63 68
-143 85 -178 31 -63 31 -64 25 -185 -4 -67 -12 -189 -18 -272 -31 -416 54
-1122 187 -1546 7 -26 14 -54 14 -63 0 -8 6 -30 14 -48 8 -18 23 -62 35 -98
11 -36 30 -90 41 -120 12 -30 25 -66 30 -80 53 -155 222 -518 314 -675 23 -38
45 -77 49 -85 12 -24 54 -91 136 -215 55 -85 254 -354 311 -421 23 -27 62 -74
88 -104 149 -176 529 -533 737 -691 76 -58 269 -192 337 -234 9 -5 40 -26 70
-46 29 -20 71 -47 93 -59 22 -12 67 -37 100 -56 107 -61 367 -186 485 -234 30
-12 69 -28 85 -35 17 -7 50 -21 75 -30 25 -9 60 -23 78 -31 18 -8 39 -14 47
-14 8 0 29 -6 47 -14 18 -8 60 -22 93 -32 33 -9 78 -23 100 -30 65 -20 249
-66 350 -88 181 -39 334 -63 480 -76 55 -5 138 -14 185 -20 105 -12 648 -12
750 0 41 5 111 12 155 15 102 8 367 50 510 81 123 28 288 69 350 89 22 7 67
20 100 30 65 19 121 39 173 61 18 8 40 14 48 14 9 0 28 6 42 14 25 13 56 25
150 60 20 8 57 22 82 31 50 20 405 195 460 227 121 70 264 159 320 197 36 25
85 58 110 75 47 31 161 116 170 126 3 3 35 29 73 59 142 112 299 255 457 417
125 129 159 166 235 258 22 27 45 54 51 60 54 57 358 484 387 546 4 8 16 29
27 45 11 17 24 39 30 50 6 11 26 47 45 80 94 163 232 462 315 685 18 47 38
101 45 120 26 70 88 282 119 405 92 370 133 676 143 1055 l6 265 71 75 c76 80
149 166 154 181 2 5 9 9 16 9 32 0 31 -611 0 -910 -20 -195 -65 -478 -90 -566
-8 -28 -14 -59 -14 -69 0 -10 -7 -43 -16 -74 -8 -31 -22 -80 -30 -109 -38
-143 -73 -259 -90 -300 -8 -18 -14 -39 -14 -47 0 -8 -6 -29 -14 -47 -8 -18
-21 -52 -30 -75 -44 -118 -57 -150 -90 -225 -8 -18 -27 -62 -43 -97 -49 -112
-202 -412 -243 -476 -11 -16 -24 -39 -29 -50 -5 -11 -21 -37 -35 -58 -14 -21
-26 -39 -26 -41 0 -4 -116 -178 -192 -288 -48 -69 -218 -286 -274 -348 -195
-219 -363 -389 -524 -531 -87 -77 -273 -227 -311 -251 -14 -9 -33 -23 -40 -30
-41 -37 -281 -197 -429 -285 -69 -41 -132 -78 -140 -83 -24 -14 -402 -201
-437 -216 -18 -8 -48 -20 -65 -28 -120 -51 -232 -95 -273 -106 -16 -5 -64 -20
-105 -34 -81 -28 -132 -44 -225 -71 -33 -9 -80 -23 -105 -31 -25 -8 -54 -14
-64 -14 -11 0 -42 -6 -70 -14 -149 -42 -425 -88 -711 -118 -161 -17 -799 -17
-965 0 -247 25 -508 68 -700 114 -25 6 -63 14 -85 19 -22 5 -71 18 -110 30
-38 11 -86 24 -105 29 -19 4 -48 13 -65 19 -66 24 -182 63 -210 70 -16 5 -41
13 -55 19 -14 5 -45 18 -70 27 -25 10 -60 24 -77 31 -18 8 -49 21 -68 29 -425
178 -842 424 -1217 720 -200 157 -562 500 -688 652 -30 36 -68 80 -83 97 -37
41 -297 384 -297 392 0 3 -13 23 -28 43 -16 20 -46 64 -68 99 -21 35 -47 75
-56 90 -10 15 -22 36 -28 47 -5 11 -14 27 -20 35 -82 124 -325 623 -370 760
-5 14 -18 50 -30 80 -12 30 -25 69 -30 85 -5 17 -14 46 -21 65 -6 19 -17 51
-24 70 -15 41 -38 121 -61 205 -8 33 -21 76 -27 95 -6 19 -14 53 -17 75 -4 22
-12 60 -18 85 -139 585 -162 1387 -57 1966 8 45 15 93 15 106 0 34 12 43 28
21 8 -10 38 -70 69 -133z m4350 -3788 c6 -4 17 -20 23 -36 25 -66 -22 -143
-69 -114 -12 7 -22 24 -23 38 -5 89 26 139 69 112z"/>
<path d="M6355 8970 c-11 -5 -41 -9 -66 -9 -27 -1 -51 -7 -58 -15 -10 -12 10
-14 136 -13 l148 2 78 -38 77 -38 46 21 c26 11 54 20 64 20 10 0 33 6 52 14
21 9 94 18 189 23 l154 7 -80 8 c-108 11 -275 4 -358 -16 -65 -15 -71 -15
-115 3 -89 37 -219 52 -267 31z"/>
<path d="M6155 8919 c-4 -6 -5 -13 -2 -15 7 -8 57 7 57 17 0 13 -47 11 -55 -2z"/>
<path d="M1230 8655 c0 -4 34 -44 76 -88 119 -128 132 -150 359 -602 92 -181
182 -357 200 -390 19 -33 39 -69 45 -80 65 -125 282 -382 429 -508 76 -65 232
-168 321 -212 41 -20 88 -43 103 -51 16 -8 35 -14 42 -14 8 0 29 -6 47 -14
108 -45 287 -59 403 -31 152 37 325 1 505 -103 131 -77 178 -84 205 -32 22 42
19 119 -10 226 -14 52 -25 115 -25 140 0 77 23 198 66 350 8 28 14 69 14 90 0
39 -26 129 -46 156 -5 7 -18 29 -28 48 -80 146 -357 403 -511 473 -80 37 -101
45 -155 60 -104 30 -176 47 -201 47 -68 0 -298 63 -373 102 -11 6 -31 14 -45
18 -14 5 -51 18 -81 30 -50 19 -114 41 -209 71 -41 14 -149 38 -211 49 -25 4
-67 13 -95 20 -27 6 -77 19 -110 27 -33 8 -80 20 -105 28 -109 32 -257 78
-280 87 -14 5 -56 20 -95 33 -38 13 -95 34 -125 45 -62 25 -110 36 -110 25z"/>
<path d="M6775 8554 c-42 -13 -71 -13 -191 -3 -79 7 -178 9 -225 5 -162 -13
-219 -22 -231 -34 -6 -6 -24 -12 -39 -12 -34 0 -59 -9 -59 -21 0 -15 54 -10
79 7 36 26 407 25 514 0 72 -18 81 -18 130 -3 112 33 157 40 310 45 148 4 187
12 135 26 -48 12 -372 5 -423 -10z"/>
<path d="M7250 8531 c0 -11 49 -21 69 -13 12 4 11 7 -5 13 -27 11 -64 11 -64
0z"/>
<path d="M5971 8471 c-8 -5 -9 -11 -3 -15 14 -8 43 4 36 15 -7 11 -15 11 -33
0z"/>
<path d="M12360 8165 c-31 -17 -83 -39 -135 -58 -146 -54 -174 -64 -240 -83
-218 -64 -389 -83 -655 -73 -595 23 -581 23 -710 5 -169 -23 -371 -61 -495
-93 -185 -48 -413 -204 -593 -408 -89 -100 -142 -206 -142 -285 0 -41 23 -158
37 -186 5 -10 18 -53 27 -94 l18 -75 -27 -75 c-57 -160 -62 -260 -14 -275 25
-8 127 3 152 17 25 13 182 38 246 38 63 0 165 -15 236 -35 84 -24 153 -35 218
-35 70 0 252 24 312 40 152 42 158 44 268 86 73 29 270 127 320 161 27 18 51
33 53 33 3 0 49 33 103 74 125 95 253 221 355 351 22 28 42 52 46 55 18 14
137 182 214 300 49 74 97 147 107 162 10 15 19 29 19 32 0 24 171 247 262 340
43 45 78 84 78 89 0 11 -32 7 -60 -8z"/>
<path d="M7959 7886 c-106 -27 -219 -83 -319 -157 -78 -58 -200 -174 -200
-190 0 -26 35 -18 78 18 78 66 212 153 290 190 130 60 189 74 324 74 119 0
179 -11 251 -47 16 -8 33 -14 38 -14 15 0 158 -89 221 -137 93 -71 123 -51 41
28 -105 100 -310 228 -368 229 -11 0 -42 7 -69 15 -70 21 -185 18 -287 -9z"/>
<path d="M5154 7821 c-33 -4 -65 -11 -72 -14 -6 -4 -30 -11 -54 -16 -82 -18
-233 -84 -361 -158 -98 -58 -47 -73 74 -22 41 17 90 37 109 44 19 7 53 20 75
28 106 40 254 67 365 67 193 0 359 -58 532 -187 62 -47 78 -52 78 -25 0 35
-162 168 -262 216 -108 50 -176 66 -303 70 -66 3 -147 1 -181 -3z"/>
<path d="M5040 7520 c-266 -48 -480 -265 -531 -537 -13 -73 -2 -117 43 -176
32 -40 121 -111 178 -143 19 -10 42 -24 50 -30 14 -10 134 -61 210 -89 43 -16
133 -39 225 -59 144 -30 402 -27 523 8 120 34 287 141 322 206 19 35 -43 257
-106 383 -86 172 -226 311 -379 377 -120 52 -164 61 -330 65 -88 2 -180 0
-205 -5z m-56 -119 c21 -5 52 -22 68 -38 81 -77 76 -193 -11 -262 -34 -27 -46
-31 -102 -31 -63 0 -94 12 -130 50 -23 23 -49 85 -49 115 0 41 36 110 73 138
29 22 48 28 102 35 6 1 27 -3 49 -7z m327 -301 c36 -20 19 -90 -22 -90 -43 0
-67 69 -31 89 22 13 29 13 53 1z"/>
<path d="M7995 7521 c-52 -7 -97 -21 -180 -54 -156 -62 -316 -219 -395 -387
-12 -25 -26 -53 -31 -62 -5 -10 -18 -48 -30 -85 -11 -38 -27 -88 -35 -113 -8
-25 -14 -63 -14 -85 0 -34 6 -47 38 -76 93 -88 180 -136 310 -171 103 -27 377
-29 497 -4 205 44 348 98 501 188 147 88 214 169 214 260 0 83 -44 206 -112
313 -29 46 -153 166 -195 188 -139 75 -190 88 -363 92 -85 2 -177 0 -205 -4z
m47 -153 c51 -40 76 -113 58 -172 -26 -87 -78 -126 -168 -126 -72 0 -101 14
-143 74 -23 31 -29 50 -29 91 0 41 6 60 29 91 48 67 89 86 171 76 29 -3 58
-15 82 -34z m269 -268 c37 -20 14 -90 -30 -90 -56 0 -54 98 2 100 5 0 17 -5
28 -10z"/>
<path d="M6428 6658 c-49 -38 -36 -158 16 -158 14 0 27 4 31 9 3 5 19 13 36
16 26 6 36 2 66 -26 30 -30 40 -34 88 -34 48 0 58 4 90 35 34 33 37 34 68 21
17 -8 45 -14 61 -15 23 -1 31 4 39 27 14 42 1 110 -24 125 -24 15 -39 8 -21
-10 13 -13 17 -70 6 -81 -4 -3 -19 0 -35 8 -45 24 -90 19 -129 -15 -37 -31
-83 -39 -97 -17 -27 44 -92 59 -142 32 -16 -8 -31 -11 -35 -8 -10 10 -7 71 4
78 12 7 13 25 2 25 -5 0 -15 -6 -24 -12z"/>
<path d="M6265 6100 c-38 -21 -79 -43 -90 -49 -33 -16 -168 -125 -173 -138 -7
-23 25 -13 84 26 33 21 93 55 134 76 41 21 87 44 102 52 35 17 125 17 247 -3
90 -14 109 -14 205 0 190 28 271 21 377 -35 69 -36 84 -45 127 -72 23 -15 48
-25 53 -21 21 13 -118 122 -216 170 -58 28 -66 29 -200 29 -77 0 -174 -2 -215
-4 -41 -2 -140 -1 -220 2 l-145 6 -70 -39z"/>
<path d="M9195 6002 c-6 -4 -23 -26 -39 -50 -49 -72 -72 -92 -108 -92 -18 0
-53 -10 -78 -22 -32 -15 -66 -21 -115 -22 -49 -1 -79 -6 -97 -18 -23 -15 -49
-17 -185 -15 -143 2 -163 0 -210 -20 -46 -20 -57 -21 -111 -11 -43 8 -71 8
-103 0 -37 -9 -50 -8 -87 9 -62 27 -153 26 -191 -2 l-28 -20 -92 21 c-57 14
-105 20 -126 16 -24 -5 -43 -1 -67 14 -39 23 -73 25 -108 5 -15 -9 -54 -14
-101 -15 -56 0 -80 -4 -89 -15 -9 -11 -33 -15 -87 -15 -73 0 -116 -15 -136
-47 -5 -8 -29 -13 -63 -13 -53 0 -124 -26 -139 -50 -3 -5 -19 -10 -36 -10 -16
0 -55 -13 -86 -30 -31 -17 -72 -30 -92 -30 -20 -1 -66 -11 -102 -23 -49 -17
-73 -21 -93 -14 -34 11 -63 4 -110 -28 -29 -19 -50 -25 -94 -25 -33 0 -74 -8
-97 -19 -34 -15 -58 -17 -146 -13 -97 4 -108 3 -154 -21 -28 -14 -62 -38 -76
-54 -54 -58 -59 -73 -59 -163 0 -47 -5 -103 -11 -124 -20 -71 15 -198 78 -283
21 -29 23 -42 23 -150 1 -76 6 -132 15 -158 8 -22 17 -61 21 -86 5 -39 3 -49
-19 -75 -25 -29 -26 -29 -135 -28 -63 1 -118 7 -131 14 -42 22 -68 6 -85 -54
-21 -71 -20 -87 7 -127 18 -27 36 -37 96 -56 41 -12 77 -26 80 -30 23 -33 112
-41 196 -19 33 9 83 12 145 9 l95 -5 29 31 c28 29 34 31 103 31 45 0 88 6 111
16 22 9 80 18 142 21 124 7 156 20 177 73 l15 37 73 -1 c56 -1 77 3 92 17 15
13 37 17 98 17 69 0 83 3 127 30 26 17 57 30 69 30 33 0 94 36 156 93 51 47
67 55 138 72 44 10 92 24 107 32 15 7 40 13 55 13 32 0 97 40 113 70 8 14 21
20 47 20 65 0 153 32 200 74 39 34 48 38 81 32 29 -4 46 0 77 19 22 13 49 25
61 25 11 0 29 7 40 15 10 8 26 15 35 15 8 0 40 15 70 33 31 18 78 39 105 47
27 7 54 17 61 22 41 32 92 48 150 48 34 0 65 -5 68 -10 3 -6 -7 -27 -24 -47
-16 -20 -39 -68 -51 -107 -12 -39 -33 -107 -47 -151 -14 -44 -28 -114 -31
-155 -5 -81 -18 -116 -63 -168 -21 -23 -29 -43 -29 -70 0 -37 25 -122 45 -152
6 -8 10 -51 10 -95 1 -74 3 -84 34 -131 18 -28 46 -59 60 -69 15 -10 38 -34
52 -54 51 -76 110 -112 195 -117 50 -2 72 -9 98 -29 38 -29 109 -34 155 -10
16 8 61 23 102 35 73 20 132 61 144 101 6 18 126 104 176 125 29 13 69 60 69
81 0 8 11 24 25 36 24 21 65 118 65 155 0 9 13 49 30 87 17 41 30 89 30 115 0
25 7 54 15 64 17 22 21 142 6 165 -7 11 -22 6 -76 -28 -90 -57 -199 -111 -223
-111 -30 0 -52 -27 -52 -64 0 -20 -8 -40 -20 -51 -15 -14 -20 -31 -20 -72 l0
-53 -33 0 c-22 0 -41 -8 -54 -22 -30 -33 -83 -126 -83 -146 0 -23 -19 -42 -36
-35 -7 3 -24 25 -36 49 -20 40 -21 48 -9 77 22 52 25 111 7 126 -9 8 -16 29
-16 51 0 21 -7 43 -15 50 -8 7 -15 23 -15 35 0 12 7 28 15 35 20 16 19 64 -1
95 -10 15 -14 34 -10 52 4 15 2 52 -4 82 -9 47 -7 60 8 90 27 53 40 115 46
220 5 70 11 102 27 127 21 34 96 104 111 104 20 0 106 74 123 106 10 19 38 45
62 59 49 29 54 51 21 82 -36 33 -93 47 -128 33 -16 -7 -37 -9 -46 -6 -13 5 -7
15 30 47 69 61 131 147 145 202 19 79 1 126 -77 197 -36 33 -69 60 -73 60 -4
0 -25 11 -45 25 -40 27 -44 28 -59 17z"/>
<path d="M4140 5960 c-25 -16 -56 -30 -70 -30 -14 0 -36 -7 -48 -16 -34 -24
-97 -125 -111 -178 -23 -94 30 -251 116 -343 58 -61 62 -69 69 -155 12 -147
52 -234 162 -350 86 -90 172 -149 317 -217 208 -98 367 -151 457 -151 44 0 70
-8 144 -45 49 -24 102 -45 119 -45 16 0 70 -13 120 -30 158 -51 196 -60 265
-60 52 0 71 4 83 18 21 22 22 54 3 90 -15 31 -41 265 -31 282 3 6 -9 39 -29
73 -59 107 -79 178 -71 255 3 37 8 99 10 137 4 98 19 144 60 192 71 83 189
122 305 101 51 -9 64 -8 85 6 16 10 46 16 86 16 52 0 70 5 112 31 43 26 60 31
115 30 35 0 78 6 96 13 17 7 54 16 82 20 66 8 120 34 105 49 -8 8 -31 7 -84
-2 -132 -24 -154 -24 -198 -7 -34 14 -69 17 -163 15 -82 -2 -150 3 -210 14
-126 24 -266 23 -335 -4 -42 -16 -66 -19 -108 -13 -56 7 -129 -12 -164 -42
-19 -17 -82 -18 -111 -3 -60 32 -283 52 -341 30 -15 -6 -86 -11 -159 -12
l-133 -3 -100 52 c-121 62 -273 177 -334 252 -24 30 -49 56 -55 58 -6 1 -31
-11 -56 -28z"/>
<path d="M6327 5968 c-53 -28 -35 -46 27 -28 25 7 58 10 73 7 15 -3 62 -13
103 -21 112 -24 207 -18 375 24 22 5 55 10 73 10 22 0 32 4 30 13 -7 20 -142
21 -246 1 -82 -15 -103 -15 -175 -4 -136 22 -216 21 -260 -2z"/>
<path d="M3995 4611 c-64 -20 -135 -84 -135 -120 0 -9 -4 -21 -9 -26 -23 -26
-79 -147 -91 -196 -16 -70 -1 -143 40 -206 16 -22 31 -52 35 -65 12 -38 41
-73 79 -93 25 -14 39 -31 51 -64 19 -50 47 -81 75 -81 10 0 38 -24 63 -53 25
-29 60 -61 79 -71 19 -11 43 -35 54 -55 31 -61 74 -111 96 -111 12 0 54 -35
107 -90 54 -55 96 -90 108 -90 13 0 25 -10 33 -29 6 -16 25 -41 40 -55 16 -14
36 -39 44 -55 13 -25 43 -47 52 -39 13 14 69 199 87 293 30 151 41 259 27 263
-7 3 -20 12 -29 21 -17 17 -63 35 -119 46 -23 5 -47 24 -85 68 -106 123 -132
139 -232 147 l-70 5 3 40 c4 55 -19 104 -65 141 -38 31 -61 79 -78 167 -4 21
-13 29 -36 34 -27 5 -29 9 -24 34 4 17 0 40 -11 60 -13 25 -15 48 -11 96 8 83
-13 106 -78 84z"/>
<path d="M9113 4408 c-13 -29 2 -108 33 -171 17 -36 17 -39 -3 -97 -11 -33
-19 -60 -16 -60 16 0 42 23 46 43 8 28 58 86 89 101 15 8 25 24 29 47 3 20 15
50 27 66 39 55 31 69 -40 76 -35 4 -83 9 -108 13 -42 6 -47 4 -57 -18z"/>
</g>
</svg>
